<svg width="32" height="32" viewBox="0 0 32 32" fill="none" xmlns="http://www.w3.org/2000/svg">
<g clip-path="url(#clip0_750_4372)">
<path d="M30.0078 14.0078H17.9922V1.99222C17.9922 0.896498 17.0957 0 16 0C14.9043 0 14.0078 0.896498 14.0078 1.99222V14.0078H1.99222C0.896498 14.0078 0 14.9043 0 16C0 16.5479 0.224124 17.0459 0.585214 17.407C0.946303 17.7681 1.44436 17.9922 1.99222 17.9922H14.0078V30.0078C14.0078 30.5556 14.2319 31.0537 14.593 31.4148C14.9541 31.7759 15.4521 32 16 32C17.0957 32 17.9922 31.1035 17.9922 30.0078V17.9922H30.0078C31.1035 17.9922 32 17.0957 32 16C32 14.9043 31.1035 14.0078 30.0078 14.0078Z" fill="black" stroke="black" stroke-width="0.2"/>
</g>
<defs>
<clipPath id="clip0_750_4372">
<rect width="32" height="32" fill="white"/>
</clipPath>
</defs>
</svg>
