<svg width="32" height="32" viewBox="0 0 32 32" fill="none" xmlns="http://www.w3.org/2000/svg">
<path d="M30.9375 15.9688C30.9375 7.70475 24.2327 1 15.9688 1C7.70475 1 1 7.70475 1 15.9688C1 24.2327 7.70475 30.9375 15.9688 30.9375C24.2327 30.9375 30.9375 24.2327 30.9375 15.9688Z" stroke="#E12D2D" stroke-width="2" stroke-miterlimit="10"/>
<path d="M15.5629 8.96602L15.9691 18.4375L16.3746 8.96602C16.3771 8.90547 16.3683 8.845 16.3488 8.7883C16.3293 8.73159 16.2994 8.67985 16.2611 8.63624C16.2228 8.59262 16.1767 8.55805 16.1258 8.53463C16.0748 8.51121 16.0201 8.49943 15.9649 8.50002V8.50002C15.9103 8.50059 15.8564 8.51321 15.8064 8.53715C15.7563 8.56108 15.7112 8.59583 15.6737 8.63933C15.6362 8.68282 15.6071 8.73417 15.588 8.7903C15.569 8.84643 15.5604 8.90619 15.5629 8.96602V8.96602Z" stroke="#E12D2D" stroke-width="2" stroke-linecap="round" stroke-linejoin="round"/>
<path d="M15.9688 24.6875C15.6535 24.6875 15.3454 24.5959 15.0833 24.4242C14.8212 24.2525 14.6169 24.0085 14.4963 23.7229C14.3757 23.4374 14.3441 23.1233 14.4056 22.8202C14.4671 22.5171 14.6189 22.2387 14.8418 22.0201C15.0647 21.8016 15.3487 21.6528 15.6578 21.5925C15.967 21.5322 16.2874 21.5632 16.5787 21.6814C16.8699 21.7997 17.1188 22 17.2939 22.2569C17.469 22.5139 17.5625 22.816 17.5625 23.125C17.5625 23.5394 17.3946 23.9368 17.0957 24.2299C16.7968 24.5229 16.3914 24.6875 15.9688 24.6875Z" fill="#E12D2D"/>
</svg>
