<svg width="24" height="24" viewBox="0 0 24 24" fill="none" xmlns="http://www.w3.org/2000/svg">
<path d="M9.91069 8.38379V16.4772C9.91939 17.069 10.1442 17.6334 10.5367 18.0486C10.9292 18.4638 11.4579 18.6965 12.0086 18.6965C12.5594 18.6965 13.088 18.4638 13.4805 18.0486C13.873 17.6334 14.0979 17.069 14.1066 16.4772L14.1134 5.86885C14.1191 5.36301 14.0313 4.86098 13.8552 4.39187C13.679 3.92276 13.4179 3.4959 13.0871 3.13602C12.7563 2.77615 12.3623 2.49043 11.928 2.29542C11.4937 2.10041 11.0277 2 10.557 2C10.0863 2 9.62023 2.10041 9.18591 2.29542C8.75158 2.49043 8.3576 2.77615 8.02678 3.13602C7.69597 3.4959 7.43492 3.92276 7.25875 4.39187C7.08258 4.86098 6.99481 5.36301 7.00052 5.86885V16.5486C6.99093 17.2608 7.11316 17.9678 7.36011 18.6288C7.60705 19.2897 7.97378 19.8913 8.43898 20.3985C8.90417 20.9058 9.45855 21.3086 10.0699 21.5835C10.6812 21.8584 11.3373 22 12 22C12.6627 22 13.3188 21.8584 13.9301 21.5835C14.5414 21.3086 15.0958 20.9058 15.561 20.3985C16.0262 19.8913 16.3929 19.2897 16.6399 18.6288C16.8868 17.9678 17.0091 17.2608 16.9995 16.5486V6.56876" stroke="#303336" stroke-width="1.5" stroke-miterlimit="10" stroke-linecap="round"/>
</svg>
