<svg width="32" height="32" viewBox="0 0 32 32" fill="none" xmlns="http://www.w3.org/2000/svg">
<path d="M31.8309 5.27714L29.2155 2.20376C29.1115 2.06792 28.948 2 28.7994 2C28.6359 2 28.4873 2.06792 28.3833 2.20376L10.2537 23.0722L3.65565 15.533C3.53677 15.3972 3.38816 15.3293 3.23956 15.3293C3.09096 15.3293 2.94235 15.3972 2.82347 15.533L0.178324 18.5555C-0.0594415 18.8272 -0.0594415 19.2517 0.178324 19.5233L8.50013 29.0321C9.03511 29.6434 9.68896 30 10.2388 30C11.0264 30 11.71 29.3378 11.9626 29.0661H11.9775L31.8458 6.245C32.0538 5.95634 32.0538 5.53184 31.8309 5.27714V5.27714Z" fill="#303336"/>
</svg>
