<svg width="512" height="512" viewBox="0 0 512 512" fill="none" xmlns="http://www.w3.org/2000/svg">
<path d="M316.665 256L499.532 73.0854C516.156 56.4568 516.156 29.1001 499.532 12.4715C482.908 -4.15715 455.558 -4.15715 438.934 12.4715L256.067 195.386L73.2003 12.4715C56.5761 -4.15715 29.2265 -4.15715 12.6022 12.4715C4.29012 20.7858 0 31.7821 0 42.7784C0 53.7748 4.29012 64.7711 12.6022 73.0854L195.469 256L12.6022 438.915C4.29012 447.229 0 458.225 0 469.222C0 480.218 4.29012 491.214 12.6022 499.529C29.2265 516.157 56.5761 516.157 73.2003 499.529L256.067 316.614L438.934 499.529C455.558 516.157 482.908 516.157 499.532 499.529C516.156 482.9 516.156 455.543 499.532 438.915L316.665 256Z" fill="black"/>
</svg>
