<svg width="24" height="24" viewBox="0 0 24 24" fill="none" xmlns="http://www.w3.org/2000/svg">
<path d="M20.25 21.0001C20.1515 21.0003 20.0539 20.9809 19.9629 20.9432C19.8719 20.9055 19.7893 20.8501 19.7198 20.7803L3.2198 4.28025C3.08509 4.13845 3.0111 3.94964 3.0136 3.75407C3.0161 3.5585 3.09491 3.37164 3.23321 3.23334C3.37151 3.09504 3.55837 3.01624 3.75394 3.01373C3.94951 3.01123 4.13832 3.08522 4.28012 3.21994L20.7801 19.72C20.885 19.8248 20.9563 19.9584 20.9852 20.1039C21.0141 20.2493 20.9993 20.4001 20.9426 20.5371C20.8858 20.6741 20.7897 20.7912 20.6665 20.8736C20.5432 20.956 20.3983 21 20.25 21.0001ZM11.984 18.0001C10.0392 18.0001 8.16371 17.4245 6.40965 16.2892C4.81262 15.2579 3.37496 13.7809 2.25183 12.0235V12.0198C3.18652 10.6806 4.21027 9.54807 5.30996 8.63494C5.31991 8.62663 5.32802 8.61634 5.33379 8.60472C5.33956 8.59311 5.34286 8.58043 5.34347 8.56748C5.34409 8.55452 5.34201 8.54158 5.33738 8.52948C5.33274 8.51737 5.32564 8.50635 5.31652 8.49713L4.38277 7.56479C4.36618 7.54806 4.3439 7.53819 4.32036 7.53715C4.29682 7.5361 4.27375 7.54396 4.25574 7.55916C3.08762 8.54354 2.0034 9.75104 1.01761 11.1648C0.848014 11.4082 0.754608 11.6966 0.749266 11.9932C0.743924 12.2898 0.826888 12.5814 0.987615 12.8307C2.22558 14.7681 3.81887 16.3998 5.59449 17.5487C7.59371 18.8439 9.74528 19.5001 11.984 19.5001C13.1924 19.4964 14.3923 19.2972 15.5372 18.9104C15.5523 18.9053 15.5658 18.8964 15.5765 18.8846C15.5872 18.8728 15.5947 18.8584 15.5984 18.8429C15.602 18.8273 15.6016 18.8111 15.5972 18.7958C15.5928 18.7805 15.5845 18.7665 15.5733 18.7553L14.5617 17.7437C14.5384 17.721 14.5096 17.7047 14.4781 17.6965C14.4466 17.6883 14.4136 17.6884 14.3822 17.6968C13.5988 17.8986 12.793 18.0005 11.984 18.0001ZM23.0081 11.1845C21.7678 9.26635 20.1586 7.63697 18.3548 6.47213C16.3593 5.18213 14.1562 4.5001 11.984 4.5001C10.7884 4.50222 9.60169 4.70552 8.47356 5.1015C8.45853 5.10673 8.44508 5.1157 8.43447 5.12757C8.42386 5.13944 8.41645 5.15381 8.41294 5.16933C8.40942 5.18485 8.40991 5.20101 8.41437 5.21629C8.41882 5.23157 8.42709 5.24546 8.4384 5.25666L9.44856 6.26682C9.47208 6.28993 9.50127 6.30644 9.5332 6.31467C9.56514 6.3229 9.59867 6.32256 9.63043 6.31369C10.3978 6.10612 11.1891 6.00068 11.984 6.0001C13.8914 6.0001 15.7612 6.58275 17.5411 7.73447C19.1681 8.78447 20.6226 10.2601 21.7486 12.0001C21.7494 12.0012 21.7499 12.0025 21.7499 12.0039C21.7499 12.0052 21.7494 12.0065 21.7486 12.0076C20.9313 13.2943 19.917 14.4447 18.7429 15.4168C18.7329 15.4251 18.7247 15.4354 18.7188 15.447C18.713 15.4587 18.7096 15.4714 18.7089 15.4844C18.7083 15.4974 18.7103 15.5104 18.715 15.5226C18.7196 15.5348 18.7267 15.5458 18.7359 15.5551L19.6687 16.4874C19.6852 16.5041 19.7074 16.514 19.7308 16.5151C19.7542 16.5162 19.7773 16.5085 19.7953 16.4935C21.0487 15.4382 22.1337 14.1976 23.0128 12.8148C23.1682 12.5711 23.2503 12.2879 23.2495 11.9989C23.2487 11.7099 23.1649 11.4273 23.0081 11.1845Z" fill="black"/>
<path d="M12 7.5C11.6629 7.49982 11.3269 7.53756 10.9983 7.6125C10.9817 7.61595 10.9663 7.62383 10.9538 7.63531C10.9414 7.64679 10.9322 7.66144 10.9274 7.6777C10.9226 7.69395 10.9223 7.71121 10.9265 7.72763C10.9307 7.74405 10.9393 7.75901 10.9514 7.77094L16.229 13.0472C16.241 13.0592 16.2559 13.0678 16.2723 13.0721C16.2888 13.0763 16.306 13.076 16.3223 13.0712C16.3385 13.0663 16.3532 13.0572 16.3647 13.0447C16.3761 13.0323 16.384 13.0169 16.3875 13.0003C16.5377 12.3413 16.5376 11.6568 16.3871 10.9979C16.2365 10.3389 15.9395 9.72228 15.5179 9.19385C15.0964 8.66542 14.5613 8.23874 13.9522 7.9455C13.3432 7.65226 12.6759 7.49999 12 7.5ZM7.77091 10.9528C7.75899 10.9408 7.74402 10.9322 7.7276 10.9279C7.71118 10.9237 7.69392 10.924 7.67767 10.9289C7.66141 10.9337 7.64676 10.9428 7.63528 10.9553C7.6238 10.9677 7.61592 10.9831 7.61247 10.9997C7.44248 11.7424 7.46382 12.516 7.67451 13.2482C7.88519 13.9803 8.27832 14.647 8.81704 15.1857C9.35577 15.7245 10.0224 16.1176 10.7546 16.3283C11.4868 16.539 12.2604 16.5603 13.0031 16.3903C13.0197 16.3869 13.035 16.379 13.0475 16.3675C13.06 16.356 13.0691 16.3414 13.0739 16.3251C13.0787 16.3089 13.0791 16.2916 13.0748 16.2752C13.0706 16.2588 13.062 16.2438 13.05 16.2319L7.77091 10.9528Z" fill="black"/>
</svg>
