<svg width="24" height="24" viewBox="0 0 24 24" fill="none" xmlns="http://www.w3.org/2000/svg">
<path d="M20.25 5.25V4.5C20.2483 3.9038 20.0107 3.3325 19.5891 2.91092C19.1675 2.48934 18.5962 2.25173 18 2.25H3C2.4038 2.25173 1.8325 2.48934 1.41092 2.91092C0.98934 3.3325 0.751731 3.9038 0.75 4.5V16.5C0.751731 17.0962 0.98934 17.6675 1.41092 18.0891C1.8325 18.5107 2.4038 18.7483 3 18.75H3.75" stroke="#303336" stroke-width="1.5" stroke-linejoin="round"/>
<path d="M21.0942 6H6.65578C5.46518 6 4.5 6.96518 4.5 8.15578V19.5942C4.5 20.7848 5.46518 21.75 6.65578 21.75H21.0942C22.2848 21.75 23.25 20.7848 23.25 19.5942V8.15578C23.25 6.96518 22.2848 6 21.0942 6Z" stroke="#303336" stroke-width="1.5" stroke-linejoin="round"/>
<path d="M17.4804 11.7276C18.277 11.7276 18.9228 11.0864 18.9228 10.2956C18.9228 9.50467 18.277 8.86353 17.4804 8.86353C16.6838 8.86353 16.0381 9.50467 16.0381 10.2956C16.0381 11.0864 16.6838 11.7276 17.4804 11.7276Z" stroke="#303336" stroke-width="1.5" stroke-miterlimit="10"/>
<path d="M11.9531 13.396L16.6406 17.5659L17.9916 16.2315C18.2474 15.9792 18.5875 15.8307 18.9464 15.8145C19.3054 15.7983 19.6575 15.9156 19.935 16.1438L23.25 18.8865V19.5938C23.25 20.7847 22.2846 21.7501 21.0938 21.7501H6.65625C5.46539 21.7501 4.5 20.7847 4.5 19.5938V18.1707L9.97594 13.3393C10.2514 13.0967 10.6087 12.9676 10.9757 12.9781C11.3427 12.9887 11.692 13.138 11.9531 13.396Z" fill="#303336"/>
<path d="M16.6406 17.5659L16.1421 18.1263C16.4376 18.3891 16.8863 18.3774 17.1677 18.0995L16.6406 17.5659ZM11.9531 13.396L11.426 13.9295C11.4353 13.9387 11.4449 13.9477 11.4546 13.9564L11.9531 13.396ZM9.97594 13.3393L9.48027 12.7764L9.47974 12.7769L9.97594 13.3393ZM4.5 18.1707L4.0038 17.6083C3.84244 17.7507 3.75 17.9555 3.75 18.1707H4.5ZM17.9916 16.2315L17.4649 15.6975L17.4645 15.6979L17.9916 16.2315ZM19.935 16.1438L20.4131 15.566L20.4114 15.5646L19.935 16.1438ZM23.25 18.8865H24C24 18.663 23.9003 18.4511 23.7281 18.3086L23.25 18.8865ZM17.1391 17.0055L12.4516 12.8357L11.4546 13.9564L16.1421 18.1263L17.1391 17.0055ZM12.4802 12.8625C12.084 12.471 11.554 12.2444 10.9972 12.2284L10.9542 13.7278C11.1313 13.7329 11.2999 13.805 11.426 13.9295L12.4802 12.8625ZM10.9972 12.2284C10.4404 12.2125 9.8983 12.4083 9.48027 12.7764L10.4716 13.9022C10.6046 13.7851 10.7771 13.7227 10.9542 13.7278L10.9972 12.2284ZM9.47974 12.7769L4.0038 17.6083L4.9962 18.7331L10.4721 13.9017L9.47974 12.7769ZM18.5182 16.7655C18.642 16.6434 18.8066 16.5715 18.9802 16.5637L18.9127 15.0652C18.3685 15.0898 17.8527 15.315 17.4649 15.6975L18.5182 16.7655ZM18.9802 16.5637C19.1539 16.5559 19.3243 16.6126 19.4586 16.7231L20.4114 15.5646C19.9907 15.2186 19.4568 15.0407 18.9127 15.0652L18.9802 16.5637ZM19.4569 16.7217L22.7719 19.4644L23.7281 18.3086L20.4131 15.566L19.4569 16.7217ZM3.75 18.1707V19.5938H5.25V18.1707H3.75ZM6.65625 22.5001H21.0938V21.0001H6.65625V22.5001ZM24 19.5938V18.8865H22.5V19.5938H24ZM17.1677 18.0995L18.5186 16.7651L17.4645 15.6979L16.1136 17.0323L17.1677 18.0995ZM21.0938 22.5001C22.6988 22.5001 24 21.1989 24 19.5938H22.5C22.5 20.3705 21.8704 21.0001 21.0938 21.0001V22.5001ZM3.75 19.5938C3.75 21.1989 5.05117 22.5001 6.65625 22.5001V21.0001C5.8796 21.0001 5.25 20.3705 5.25 19.5938H3.75Z" fill="#303336"/>
</svg>
