<svg width="32" height="33" viewBox="0 0 32 33" fill="none" xmlns="http://www.w3.org/2000/svg">
<path d="M24 14.5V26C24 26.3283 23.9353 26.6534 23.8097 26.9567C23.6841 27.26 23.4999 27.5356 23.2678 27.7678C23.0356 27.9999 22.76 28.1841 22.4567 28.3097C22.1534 28.4353 21.8283 28.5 21.5 28.5H6.5C5.83696 28.5 5.20107 28.2366 4.73223 27.7678C4.26339 27.2989 4 26.663 4 26V11C4 10.337 4.26339 9.70107 4.73223 9.23223C5.20107 8.76339 5.83696 8.5 6.5 8.5H16.9675" stroke="#303336" stroke-width="3" stroke-linecap="round" stroke-linejoin="round"/>
<path d="M28.7462 3.82814C28.6549 3.72779 28.5442 3.647 28.4207 3.59065C28.2973 3.5343 28.1637 3.50356 28.0281 3.50029C27.8924 3.49702 27.7575 3.52128 27.6315 3.57162C27.5055 3.62195 27.391 3.69731 27.295 3.79314L26.5219 4.56252C26.4282 4.65628 26.3755 4.7834 26.3755 4.91596C26.3755 5.04851 26.4282 5.17563 26.5219 5.26939L27.2306 5.97689C27.2771 6.02357 27.3323 6.06061 27.3931 6.08588C27.4539 6.11115 27.5191 6.12416 27.585 6.12416C27.6508 6.12416 27.716 6.11115 27.7769 6.08588C27.8377 6.06061 27.8929 6.02357 27.9394 5.97689L28.6931 5.22689C29.0744 4.84627 29.11 4.22627 28.7462 3.82814ZM24.9587 6.12502L13.6762 17.3875C13.6078 17.4557 13.5581 17.5402 13.5319 17.6331L13.01 19.1875C12.9975 19.2297 12.9966 19.2745 13.0074 19.3171C13.0182 19.3597 13.0404 19.3987 13.0715 19.4298C13.1026 19.4609 13.1415 19.483 13.1842 19.4938C13.2268 19.5047 13.2716 19.5038 13.3137 19.4913L14.8669 18.9694C14.9598 18.9431 15.0444 18.8934 15.1125 18.825L26.375 7.54127C26.4792 7.43596 26.5376 7.29379 26.5376 7.14564C26.5376 6.9975 26.4792 6.85533 26.375 6.75002L25.7531 6.12502C25.6477 6.01987 25.5048 5.96083 25.3559 5.96083C25.207 5.96083 25.0642 6.01987 24.9587 6.12502Z" fill="#303336"/>
</svg>
