<svg width="32" height="32" viewBox="0 0 32 32" fill="none" xmlns="http://www.w3.org/2000/svg">
<g clip-path="url(#clip0_179_8332)">
<path d="M31.2137 15.9629C31.2136 15.6324 31.1181 15.309 30.9385 15.0315C30.7589 14.7541 30.5029 14.5345 30.2014 14.3991L2.34815 1.84128L2.34411 1.83724C2.02153 1.69387 1.66256 1.65357 1.31622 1.72186C0.969889 1.79014 0.653075 1.96366 0.409052 2.21874C0.165029 2.47381 0.00569487 2.798 -0.0471887 3.14702C-0.100072 3.49604 -0.0439269 3.85287 0.113579 4.16878L0.127722 4.19606L4.10135 14.0925C4.19555 14.2688 4.33436 14.4174 4.50391 14.5233C4.67346 14.6292 4.86783 14.6888 5.06761 14.6961L26.5693 15.4553C26.6356 15.4553 26.7013 15.4683 26.7625 15.4937C26.8238 15.5191 26.8795 15.5563 26.9264 15.6032C26.9733 15.6501 27.0105 15.7058 27.0359 15.7671C27.0613 15.8283 27.0744 15.894 27.0744 15.9604C27.0744 16.0267 27.0613 16.0924 27.0359 16.1537C27.0105 16.2149 26.9733 16.2706 26.9264 16.3175C26.8795 16.3644 26.8238 16.4016 26.7625 16.427C26.7013 16.4524 26.6356 16.4655 26.5693 16.4655L5.07215 17.2191C4.87237 17.2264 4.678 17.286 4.50845 17.3919C4.3389 17.4978 4.2001 17.6463 4.10589 17.8227L0.12923 27.7242C0.122159 27.7373 0.116098 27.7494 0.110037 27.7626C-0.19656 28.3924 -0.117764 29.1319 0.354504 29.6486L0.405015 29.6991C0.653227 29.9502 0.97123 30.1208 1.31768 30.1887C1.66413 30.2566 2.023 30.2187 2.34763 30.08L30.1944 17.5267C30.4972 17.3924 30.7546 17.1732 30.9355 16.8957C31.1164 16.6181 31.213 16.2942 31.2137 15.9629Z" fill="#303336"/>
</g>
<defs>
<clipPath id="clip0_179_8332">
<rect width="32" height="32" fill="white"/>
</clipPath>
</defs>
</svg>
