<svg width="32" height="32" viewBox="0 0 32 32" fill="none" xmlns="http://www.w3.org/2000/svg">
<path d="M25.5 4.00011H6C4.34315 4.00011 3 5.34326 3 7.00011V21.3762C3 22.4226 3.8483 23.2709 4.89474 23.2709C5.50516 23.2709 6 23.7658 6 24.3762V28.2988C6 28.5628 6.31628 28.6981 6.50718 28.5158L11.4203 23.8245C11.7924 23.4692 12.2871 23.2709 12.8015 23.2709H25.5C27.1569 23.2709 28.5 21.9278 28.5 20.2709V7.00011C28.5 5.34325 27.1569 4.00011 25.5 4.00011Z" fill="white" stroke="#303336" stroke-width="2"/>
<path d="M15.1167 20.333C15.8559 20.333 16.4552 19.7267 16.4552 18.9789C16.4552 18.231 15.8559 17.6247 15.1167 17.6247C14.3776 17.6247 13.7783 18.231 13.7783 18.9789C13.7783 19.7267 14.3776 20.333 15.1167 20.333Z" fill="#303336"/>
<path d="M13.7783 9.77114C13.7783 8.50719 14.8745 7.84928 15.8433 7.87545C17.0789 7.90882 18.5966 8.66463 18.5966 10.4025C18.5966 12.9302 15.155 12.9302 15.155 12.9302V15.458" stroke="#303336" stroke-width="2" stroke-linecap="round" stroke-linejoin="round"/>
</svg>
