<svg width="32" height="32" viewBox="0 0 32 32" fill="none" xmlns="http://www.w3.org/2000/svg">
<rect x="24.3872" y="12.2904" width="4.67742" height="14.9677" fill="white"/>
<rect x="1" y="12.2901" width="5.6129" height="15.9032" fill="white"/>
<rect x="6.61328" y="2" width="17.7742" height="27.129" fill="white"/>
<ellipse cx="15.4999" cy="8.54837" rx="1.40323" ry="1.87097" fill="white"/>
<rect x="12.2261" y="16.9678" width="6.54839" height="12.1613" fill="white"/>
<path d="M29.383 11.4943H24.4468V2.85597C24.4468 2.51661 24.1691 2.23895 23.8298 2.23895H7.17021C6.83085 2.23895 6.55319 2.51661 6.55319 2.85597V11.4943H1.61702C1.27766 11.4943 1 11.7719 1 12.1113V28.7709C1 29.1102 1.27766 29.3879 1.61702 29.3879H7.17021H12.1064H18.8936H23.8298H29.383C29.7223 29.3879 30 29.1102 30 28.7709V12.1113C30 11.7719 29.7223 11.4943 29.383 11.4943ZM2.23404 12.7283H6.55319V28.1539H2.23404V12.7283ZM7.78723 12.1113V3.473H23.2128V12.1113V28.1539H19.5106V17.6645C19.5106 17.3251 19.233 17.0475 18.8936 17.0475H12.1064C11.767 17.0475 11.4894 17.3251 11.4894 17.6645V28.1539H7.78723V12.1113ZM12.7234 28.1539V18.2815H18.2766V28.1539H12.7234ZM28.766 28.1539H24.4468V12.7283H28.766V28.1539Z" fill="#303336" stroke="#303336" stroke-width="0.75"/>
<path d="M15.5002 11.1858C17.0428 11.1858 18.2768 9.95173 18.2768 8.40918C18.2768 6.86663 17.0428 5.63258 15.5002 5.63258C13.9577 5.63258 12.7236 6.86663 12.7236 8.40918C12.7236 9.95173 13.9577 11.1858 15.5002 11.1858ZM15.5002 6.86663C16.3641 6.86663 17.0428 7.54535 17.0428 8.40918C17.0428 9.27301 16.3641 9.95173 15.5002 9.95173C14.6364 9.95173 13.9577 9.27301 13.9577 8.40918C13.9577 7.54535 14.6364 6.86663 15.5002 6.86663Z" fill="#303336" stroke="#303336" stroke-width="0.75"/>
</svg>
