<svg width="5000" height="3500" viewBox="0 0 5000 3500" fill="none" xmlns="http://www.w3.org/2000/svg">
<g clip-path="url(#clip0_624_3990)">
<path d="M1550.35 1947.27L1398.2 3486.11" stroke="#B4B4B4" stroke-width="6" stroke-miterlimit="10" stroke-linecap="round"/>
<path d="M2169.62 1947.27L2321.76 3486.11" stroke="#B4B4B4" stroke-width="6" stroke-miterlimit="10" stroke-linecap="round"/>
<path d="M1445.68 3036.09C1445.68 3036.09 1812.14 2842.6 2275.56 3036.09" stroke="#B4B4B4" stroke-width="6" stroke-miterlimit="10" stroke-linecap="round"/>
<path d="M2255.6 1947.27H1483.33C1431.99 1947.27 1390.36 1905.63 1390.36 1854.3V1815.51H2348.57V1854.16C2348.57 1905.63 2306.93 1947.27 2255.6 1947.27Z" fill="#D8D8D8" stroke="#B4B4B4" stroke-width="6" stroke-miterlimit="10" stroke-linejoin="round"/>
<path d="M1706.77 2508.65L1678.54 2540.45C1661.28 2559.98 1662.99 2589.78 1682.53 2607.04C1692.22 2615.74 1704.63 2619.59 1716.61 2618.87C1728.73 2618.16 1740.42 2612.88 1749.12 2603.05L1779.06 2569.39C1779.06 2569.25 1779.2 2560.7 1779.2 2560.55C1765.8 2553.28 1750.12 2550.71 1734.57 2536.88C1724.02 2527.47 1714.61 2517.92 1706.77 2508.65Z" stroke="#525252" stroke-width="3" stroke-miterlimit="10" stroke-linecap="round"/>
<path d="M1582.86 2571.68L1719.03 2446.91L1877.45 2503.66L1720.31 2729.95C1707.77 2748.06 1682.67 2752.34 1664.7 2739.51L1589.27 2685.04C1551.91 2657.8 1548.63 2602.9 1582.86 2571.68Z" fill="white" stroke="#BBBDBF" stroke-width="5" stroke-miterlimit="10"/>
<path d="M2240.34 1806.53C2249.33 1850.45 2242.91 1898.22 2217.53 1941L1882.73 2503.52C1879.59 2516.21 1839.24 2518.2 1792.75 2507.22C1746.12 2496.25 1710.9 2476.71 1713.9 2464.02L1869.75 1800.83C1893.7 1698.88 1995.8 1635.57 2097.9 1659.52C2174.04 1677.49 2226.23 1737.38 2240.34 1806.53Z" fill="#848484"/>
<path d="M2243.77 1858.15C2222.95 1841.75 2198.14 1829.49 2170.05 1822.93C2068.09 1798.97 1966 1862.14 1941.9 1964.24L1813.28 2511.5C1806.58 2510.5 1799.74 2509.08 1792.61 2507.37C1745.98 2496.39 1710.76 2476.85 1713.75 2464.16L1869.61 1800.97C1893.56 1699.02 1995.66 1635.71 2097.75 1659.66C2173.9 1677.63 2226.08 1737.52 2240.34 1806.67C2243.91 1823.36 2245.05 1840.75 2243.77 1858.15Z" fill="#525252"/>
<path d="M1799.59 2099.56L1713.9 2464.02C1710.9 2476.71 1746.12 2496.39 1792.75 2507.22C1839.38 2518.2 1879.73 2516.21 1882.73 2503.52L2083.49 2166.29L1799.59 2099.56Z" fill="#BBBDBF"/>
<path d="M2083.49 2166.29L1799.59 2099.56" stroke="white" stroke-width="6" stroke-miterlimit="10" stroke-linecap="round"/>
<path opacity="0.7" d="M1790.04 2144.04L2059.11 2207.36" stroke="white" stroke-width="6" stroke-miterlimit="10" stroke-linecap="round"/>
<path opacity="0.7" d="M1778.06 2194.81L2030.73 2254.27" stroke="white" stroke-width="6" stroke-miterlimit="10" stroke-linecap="round"/>
<path opacity="0.7" d="M1766.09 2245.71L2002.36 2301.18" stroke="white" stroke-width="6" stroke-miterlimit="10" stroke-linecap="round"/>
<path opacity="0.7" d="M1754.25 2296.47L1973.98 2348.09" stroke="white" stroke-width="6" stroke-miterlimit="10" stroke-linecap="round"/>
<path opacity="0.7" d="M1742.27 2347.24L1945.75 2395" stroke="white" stroke-width="6" stroke-miterlimit="10" stroke-linecap="round"/>
<path opacity="0.7" d="M1730.3 2398L1917.37 2441.92" stroke="white" stroke-width="6" stroke-miterlimit="10" stroke-linecap="round"/>
<path opacity="0.7" d="M1718.32 2448.76L1891.14 2489.4" stroke="white" stroke-width="6" stroke-miterlimit="10" stroke-linecap="round"/>
<path d="M1880.87 2741.36V1831.34C1880.87 1726.54 1795.89 1641.7 1691.23 1641.7C1563.04 1641.7 1471.78 1766.04 1510.28 1888.38L1707.48 2512.64L1678.68 2682.47C1671.12 2727.81 1698.07 2771.87 1741.85 2785.71L1796.6 2803.1C1838.24 2816.22 1880.87 2785.14 1880.87 2741.36Z" fill="#848484"/>
<path d="M1880.87 2123.94V2512.64C1880.87 2525.76 1842.09 2536.74 1794.18 2536.74C1746.41 2536.74 1707.48 2525.62 1707.48 2512.5L1584.99 2123.94H1880.87V2123.94Z" fill="#BBBDBF"/>
<path d="M1584.85 2119.66H1880.87L1882.3 2498.38" stroke="white" stroke-width="6" stroke-miterlimit="10" stroke-linecap="round"/>
<path d="M1678.68 2682.33C1671.12 2727.67 1698.07 2771.73 1741.84 2785.56L1796.6 2802.96C1838.24 2816.22 1880.87 2785.13 1880.87 2741.36L1876.02 2512.64C1876.02 2525.76 1842.09 2536.74 1794.32 2536.74C1746.55 2536.74 1710.9 2522.34 1710.76 2509.22L1678.68 2682.33Z" fill="white" stroke="#BBBDBF" stroke-width="5" stroke-miterlimit="10"/>
<path d="M1833.67 2564.98V2607.47C1833.67 2633.56 1812.57 2654.67 1786.48 2654.67C1773.5 2654.67 1761.67 2649.39 1753.11 2640.83C1744.55 2632.28 1739.28 2620.44 1739.28 2607.47V2562.41C1739.28 2562.27 1739.28 2562.27 1739.28 2562.12C1754.25 2565.55 1773.36 2567.68 1794.03 2567.68C1808.44 2567.68 1821.84 2566.69 1833.67 2564.98Z" fill="#BBBDBF"/>
<path d="M1876.45 2183.83H1603.53" stroke="white" stroke-width="6" stroke-miterlimit="10" stroke-linecap="round"/>
<path d="M1876.45 2236.02H1620.36" stroke="white" stroke-width="6" stroke-miterlimit="10" stroke-linecap="round"/>
<path d="M1876.45 2288.06H1637.18" stroke="white" stroke-width="6" stroke-miterlimit="10" stroke-linecap="round"/>
<path d="M1876.45 2340.25H1654.01" stroke="white" stroke-width="6" stroke-miterlimit="10" stroke-linecap="round"/>
<path d="M1876.45 2392.44H1670.98" stroke="white" stroke-width="6" stroke-miterlimit="10" stroke-linecap="round"/>
<path d="M1876.45 2444.63H1687.8" stroke="white" stroke-width="6" stroke-miterlimit="10" stroke-linecap="round"/>
<path d="M1876.45 2496.82H1702.49" stroke="white" stroke-width="6" stroke-miterlimit="10" stroke-linecap="round"/>
<path d="M3184.16 2242H3298.09C3388.35 2242 3461.49 2315.15 3461.49 2405.41V3093.42C3461.49 3183.68 3388.35 3256.83 3298.09 3256.83H3253.31C3201.27 3256.83 3159.06 3299.03 3159.06 3351.08" stroke="#B4B4B4" stroke-width="6" stroke-miterlimit="10" stroke-linecap="round"/>
<path d="M3163.34 3486.11C3208.22 3486.11 3244.61 3449.72 3244.61 3404.84C3244.61 3359.95 3208.22 3323.56 3163.34 3323.56C3118.45 3323.56 3082.06 3359.95 3082.06 3404.84C3082.06 3449.72 3118.45 3486.11 3163.34 3486.11Z" fill="white" stroke="#B4B4B4" stroke-width="6" stroke-miterlimit="10" stroke-linejoin="round"/>
<path d="M3147.37 2242H3844.49C3875.86 2242 3901.25 2216.62 3901.25 2185.25V2137.48C3901.25 2106.11 3875.86 2080.73 3844.49 2080.73H3147.37C3111.29 2080.73 3082.06 2109.96 3082.06 2146.04V2176.55C3082.06 2212.77 3111.29 2242 3147.37 2242Z" fill="#D8D8D8" stroke="#B4B4B4" stroke-width="6" stroke-miterlimit="10" stroke-linejoin="round"/>
<path d="M3799.58 2242H3685.65C3595.39 2242 3522.24 2315.15 3522.24 2405.41V3093.42C3522.24 3183.68 3595.39 3256.83 3685.65 3256.83H3730.42C3782.47 3256.83 3824.67 3299.03 3824.67 3351.08" stroke="#B4B4B4" stroke-width="6" stroke-miterlimit="10" stroke-linecap="round"/>
<path d="M3820.54 3486.11C3865.43 3486.11 3901.82 3449.72 3901.82 3404.84C3901.82 3359.95 3865.43 3323.56 3820.54 3323.56C3775.65 3323.56 3739.26 3359.95 3739.26 3404.84C3739.26 3449.72 3775.65 3486.11 3820.54 3486.11Z" fill="white" stroke="#B4B4B4" stroke-width="6" stroke-miterlimit="10" stroke-linejoin="round"/>
<path d="M2530.8 3178.68L2582.13 3283.77C2599.39 3319.14 2608.37 3357.78 2608.37 3396.85V3476.56C2608.37 3490.39 2596.82 3501.65 2582.56 3501.65H1996.23C1980.68 3501.65 1968.14 3489.39 1968.14 3474.27V3449.61C1968.14 3439.63 1973.7 3430.5 1982.68 3425.65C2043.57 3393 2240.2 3290.9 2278.27 3181.82L2530.8 3178.68Z" fill="white" stroke="#C0C0C0" stroke-width="6" stroke-miterlimit="10"/>
<path d="M2604.81 3354.36H2558.89C2516.4 3354.36 2476.9 3375.89 2454.66 3411.11L2435.12 3442.19C2423.43 3460.73 2402.75 3471.99 2380.51 3471.99H1968.42" fill="white"/>
<path d="M2604.81 3354.36H2558.89C2516.4 3354.36 2476.9 3375.89 2454.66 3411.11L2435.12 3442.19C2423.43 3460.73 2402.75 3471.99 2380.51 3471.99H1968.42" stroke="#C0C0C0" stroke-width="6" stroke-miterlimit="10"/>
<path d="M2569.3 3257.54C2525.24 3258.96 2466.78 3254.4 2396.19 3241.57C2349.85 3233.15 2305.79 3220.32 2267.43 3205.92C2271.85 3197.93 2275.42 3189.95 2278.27 3181.96L2530.8 3178.68L2569.3 3257.54Z" fill="#C0C0C0"/>
<path d="M2156.07 3319.71L2202.56 3245.99C2219.95 3218.47 2200.7 3182.39 2168.19 3181.54C2138.82 3180.68 2117.57 3209.63 2127.27 3237.43L2156.07 3319.71Z" stroke="#BBBDBF" stroke-width="6" stroke-miterlimit="10" stroke-linecap="round" stroke-linejoin="round"/>
<path d="M2153.51 3320.13L2102.74 3278.36C2083.78 3262.81 2054.97 3273.65 2051.27 3298.03C2047.85 3319.99 2067.52 3338.53 2089.2 3333.97L2153.51 3320.13Z" stroke="#BBBDBF" stroke-width="6" stroke-miterlimit="10" stroke-linecap="round" stroke-linejoin="round"/>
<path d="M2148.94 3318H2264.3" stroke="#BBBDBF" stroke-width="6" stroke-miterlimit="10" stroke-linecap="round" stroke-linejoin="round"/>
<path d="M2115.29 3350.22H2230.5" stroke="#BBBDBF" stroke-width="6" stroke-miterlimit="10" stroke-linecap="round" stroke-linejoin="round"/>
<path d="M2200.7 3284.2H2313.06" stroke="#BBBDBF" stroke-width="6" stroke-miterlimit="10" stroke-linecap="round" stroke-linejoin="round"/>
<path d="M3216.24 1709L2951.73 1809.1L2697.35 3133.91C2687.08 3158.15 2552.19 3192.94 2426.28 3192.94C2293.67 3192.94 2186.3 3156.01 2186.3 3129.92L2342.58 1913.05C2362.97 1752.49 2499.57 1632 2661.56 1632H3211.25L3213.81 1708.86L3216.24 1709Z" fill="white" stroke="#909090" stroke-width="6" stroke-miterlimit="10" stroke-linecap="round"/>
<path d="M2419.01 3192.66L2573.29 1991.33C2593.4 1832.77 2737.13 1710.99 2973.69 1710.99" stroke="#909090" stroke-width="6" stroke-miterlimit="10" stroke-linecap="round"/>
<path d="M3093.47 1694.74L2808.71 2565.54L2697.78 2210.78C2629.33 1983.91 2752.67 1694.74 3093.47 1694.74Z" fill="#909090"/>
<path d="M3405.74 3173.41L3508.26 3428.79C3522.52 3464.15 3494.43 3501.94 3453.94 3501.94H3067.8C3048.69 3501.94 3033.15 3487.54 3033.15 3469.57V3443.9C3033.15 3432.21 3036.86 3420.95 3043.99 3411.25L3111.72 3337.25C3151.22 3294.18 3172.89 3239.29 3172.89 3182.68V3181.96L3405.74 3173.41Z" fill="white" stroke="#C0C0C0" stroke-width="6" stroke-miterlimit="10"/>
<path d="M3058.25 3396.14C3079.64 3386.15 3103.16 3380.88 3127.12 3380.88H3251.03C3272.99 3380.88 3294.66 3385.3 3314.63 3393.85L3359.97 3413.1" fill="white"/>
<path d="M3058.25 3396.14C3079.64 3386.15 3103.16 3380.88 3127.12 3380.88H3251.03C3272.99 3380.88 3294.66 3385.3 3314.63 3393.85L3359.97 3413.1" stroke="#C0C0C0" stroke-width="6" stroke-miterlimit="10"/>
<path d="M3410.59 3185.1C3402.6 3216.61 3296.66 3241.71 3167.19 3241.71H3165.05C3170.32 3222.46 3173.03 3202.64 3173.03 3182.53V3181.82L3405.88 3173.41L3410.59 3185.1Z" fill="#C0C0C0"/>
<path d="M3208.96 3301.03L3286.96 3300.32C3319.19 3299.89 3338.72 3264.67 3322.04 3237.15C3306.92 3212.19 3271.56 3210.2 3253.74 3233.3L3208.96 3301.03Z" stroke="#BBBDBF" stroke-width="6" stroke-miterlimit="10" stroke-linejoin="round"/>
<path d="M3208.97 3301.03L3168.18 3250.41C3152.93 3231.45 3122.84 3236.29 3114.43 3259.11C3106.73 3279.64 3121.98 3301.6 3143.94 3301.46L3208.97 3301.03Z" stroke="#BBBDBF" stroke-width="6" stroke-miterlimit="10" stroke-linejoin="round"/>
<path d="M3165.62 3330.12H3334.59" stroke="#BBBDBF" stroke-width="6" stroke-miterlimit="10" stroke-linecap="round" stroke-linejoin="round"/>
<path d="M3495.29 3105.54C3495.29 3136.48 3383.5 3194.51 3266.86 3194.51C3162.05 3194.51 3075.21 3173.69 3058.82 3147.31L2770.5 2225.04C2690.5 1960.24 2888.71 1693.31 3165.19 1693.31H3212.53L3205.83 1455.47H3797.87L3856.19 1697.45C3903.24 1892.8 3755.23 2085.58 3554.32 2085.58H3288.53L3495.29 3105.54Z" fill="white" stroke="#909090" stroke-width="6" stroke-miterlimit="10" stroke-linecap="round"/>
<path d="M3311.49 3190.09L3039 2318.29C2941.04 2035.25 3050.97 1886.95 3312.34 1886.95H3550.61C3626.04 1886.95 3687.21 1825.78 3687.21 1750.35V1456.04" stroke="#909090" stroke-width="6" stroke-miterlimit="10" stroke-linecap="round"/>
<path d="M4668.38 1815.51H249.059C231.663 1815.51 225.104 1792.7 239.791 1783.43L1021.19 1403.28H3931.47L4676.37 1788.56C4688.63 1796.69 4682.93 1815.51 4668.38 1815.51Z" fill="white" stroke="#B4B4B4" stroke-width="6" stroke-miterlimit="10" stroke-linejoin="round"/>
<path d="M4550.46 1773.17H361.421C342.028 1773.17 334.614 1747.64 351.154 1737.23L1025.47 1407.56H3924.77L4561.16 1737.52C4577.13 1748.07 4569.71 1773.17 4550.46 1773.17Z" fill="#D8D8D8"/>
<path d="M478.773 1815.51L188.601 3486.11" stroke="#B4B4B4" stroke-width="6" stroke-miterlimit="10" stroke-linecap="round"/>
<path d="M630.063 1815.51L920.235 3486.11" stroke="#B4B4B4" stroke-width="6" stroke-miterlimit="10" stroke-linecap="round"/>
<path d="M4275.55 1815.51L3985.37 3486.11" stroke="#B4B4B4" stroke-width="6" stroke-miterlimit="10" stroke-linecap="round"/>
<path d="M4426.84 1815.51L4717.01 3486.11" stroke="#B4B4B4" stroke-width="6" stroke-miterlimit="10" stroke-linecap="round"/>
<path d="M1016.2 1342.4L975.133 1633.14C972.709 1650.39 958.022 1663.08 940.626 1663.08H860.347C842.951 1663.08 828.264 1650.25 825.84 1633.14L784.774 1342.4C784.774 1368.49 836.535 1389.59 900.415 1389.59C964.439 1389.59 1016.2 1368.35 1016.2 1342.4Z" fill="white" stroke="#B4B4B4" stroke-width="6" stroke-miterlimit="10" stroke-linejoin="round"/>
<path d="M990.39 1373.48L953.744 1630.86C951.035 1650.11 934.352 1664.51 914.96 1664.51H887.439C868.047 1664.51 851.364 1650.11 848.655 1630.86L812.009 1374.19C814.861 1375.48 817.998 1376.62 821.135 1377.76L857.068 1629.72C859.064 1643.55 870.186 1654.24 883.875 1655.81C885.015 1655.95 886.156 1656.1 887.439 1656.1H914.96C916.671 1656.1 918.382 1655.95 919.95 1655.67C932.926 1653.53 943.335 1643.12 945.189 1629.72L981.122 1377.19C984.544 1376.05 987.538 1374.76 990.39 1373.48Z" fill="#B4B4B4"/>
<path d="M952.604 1384.89L919.95 1655.67L919.522 1659.38C919.237 1661.51 917.383 1663.08 915.245 1663.08C915.102 1663.08 914.959 1663.08 914.674 1663.08C912.25 1662.8 910.682 1660.66 910.967 1658.38L911.252 1656.1L943.763 1386.46C946.9 1385.89 949.752 1385.32 952.604 1384.89Z" fill="#B4B4B4"/>
<path d="M889.15 1663.08C889.008 1663.08 888.865 1663.08 888.58 1663.08C886.441 1663.08 884.587 1661.52 884.302 1659.38L883.874 1655.81L851.221 1385.46C854.073 1386.03 857.067 1386.46 860.062 1386.88L892.572 1656.1L892.858 1658.38C893.143 1660.66 891.432 1662.8 889.15 1663.08Z" fill="#B4B4B4"/>
<path d="M1020.33 1342.4C1020.33 1354.37 1009.07 1365.21 990.533 1373.62C987.681 1374.91 984.544 1376.19 981.407 1377.33C972.851 1380.33 963.298 1383.04 952.746 1385.03C949.894 1385.6 946.9 1386.03 943.905 1386.6C931.5 1388.45 917.954 1389.59 903.837 1389.74C902.697 1389.74 901.698 1389.74 900.558 1389.74C898.989 1389.74 897.421 1389.74 895.852 1389.74C883.304 1389.59 871.327 1388.6 860.204 1387.03C857.21 1386.6 854.358 1386.17 851.364 1385.6C840.384 1383.61 830.26 1381.04 821.277 1377.9C818.14 1376.76 815.003 1375.62 812.151 1374.34C792.616 1365.92 780.781 1354.8 780.781 1342.54C780.781 1341.54 780.924 1340.54 781.066 1339.54C785.059 1314.88 836.962 1295.48 900.558 1295.48C964.153 1295.48 1016.2 1315.02 1020.05 1339.54C1020.19 1340.4 1020.33 1341.4 1020.33 1342.4Z" fill="#B4B4B4"/>
<path d="M905.548 1655.1C905.548 1655.38 905.548 1655.81 905.406 1656.1C904.978 1657.95 903.267 1659.38 901.271 1659.38C899.274 1659.38 897.563 1657.95 897.135 1656.1C896.993 1655.81 896.993 1655.53 896.993 1655.24L895.567 1391.16C895.567 1390.59 895.709 1390.17 895.852 1389.59C897.421 1389.59 898.989 1389.59 900.558 1389.59C901.698 1389.59 902.839 1389.59 903.837 1389.59C903.98 1390.02 904.122 1390.45 904.122 1391.02L905.548 1655.1Z" fill="#B4B4B4"/>
<path d="M901.271 1380.9C875.889 1380.18 852.647 1376.33 833.825 1370.2L766.522 1088.01H831.401L901.271 1380.9Z" fill="#C0C0C0"/>
<path d="M839.814 1123.66H813.292C811.296 1123.66 809.727 1122.09 809.727 1120.1C809.727 1118.1 811.296 1116.53 813.292 1116.53H838.103L839.814 1123.66Z" fill="white"/>
<path d="M846.944 1153.61H820.422C818.425 1153.61 816.857 1152.04 816.857 1150.04C816.857 1148.04 818.425 1146.48 820.422 1146.48H845.233L846.944 1153.61Z" fill="white"/>
<path d="M854.073 1183.55H827.551C825.555 1183.55 823.986 1181.98 823.986 1179.98C823.986 1177.99 825.555 1176.42 827.551 1176.42H852.362L854.073 1183.55Z" fill="white"/>
<path d="M861.345 1213.49H834.823C832.827 1213.49 831.258 1211.93 831.258 1209.93C831.258 1207.93 832.827 1206.36 834.823 1206.36H859.634L861.345 1213.49Z" fill="white"/>
<path d="M868.475 1243.44H841.953C839.957 1243.44 838.388 1241.87 838.388 1239.87C838.388 1237.88 839.957 1236.31 841.953 1236.31H866.764L868.475 1243.44Z" fill="white"/>
<path d="M875.604 1273.38H850.366C848.369 1273.38 846.801 1271.81 846.801 1269.82C846.801 1267.82 848.369 1266.25 850.366 1266.25H873.893L875.604 1273.38Z" fill="white"/>
<path d="M882.734 1303.33H856.069C854.073 1303.33 852.504 1301.76 852.504 1299.76C852.504 1297.76 854.073 1296.2 856.069 1296.2H881.023L882.734 1303.33Z" fill="white"/>
<path d="M889.863 1333.27H863.199C861.202 1333.27 859.634 1331.7 859.634 1329.71C859.634 1327.71 861.202 1326.14 863.199 1326.14H888.152L889.863 1333.27Z" fill="white"/>
<path d="M896.993 1363.07C896.708 1363.21 896.422 1363.21 895.995 1363.21H868.902C866.906 1363.21 865.338 1361.65 865.338 1359.65C865.338 1357.65 866.906 1356.08 868.902 1356.08H895.282L896.993 1363.07Z" fill="white"/>
<path d="M1388.22 1697.45C1388.22 1697.45 1388.08 1697.59 1388.22 1697.45L1382.23 1719.26C1382.09 1719.83 1381.66 1720.12 1381.23 1719.98L1073.24 1628.01C1072.81 1627.86 1072.66 1627.29 1072.81 1626.87L1078.65 1605.19C1078.65 1604.91 1078.94 1604.76 1079.08 1604.62C1079.22 1604.48 1079.51 1604.48 1079.65 1604.48L1387.65 1696.45C1387.79 1696.45 1387.93 1696.74 1388.08 1696.88C1388.22 1697.02 1388.22 1697.31 1388.22 1697.45Z" fill="#BBBDBF"/>
<path d="M1083.22 1605.76L1076.94 1629C1076.51 1630.57 1075.23 1631.57 1073.95 1631.29L1066.96 1629.15C1065.82 1628.86 1065.11 1627.15 1065.53 1625.58L1071.81 1602.34C1072.24 1600.77 1073.52 1599.77 1074.8 1600.06L1081.79 1602.2C1082.93 1602.48 1083.64 1604.05 1083.22 1605.76Z" fill="#C0C0C0"/>
<path d="M1054.84 1604.05L1051.99 1614.89C1051.13 1617.88 1052.99 1621.02 1056.12 1622.02L1065.96 1624.87L1071.81 1603.05L1061.97 1600.2C1058.83 1599.35 1055.7 1601.06 1054.84 1604.05Z" fill="#BBBDBF"/>
<path d="M1387.36 1697.31L1396.63 1706.72L1403.76 1713.99L1394.07 1716.27L1381.52 1719.12L1387.36 1697.31Z" fill="white"/>
<path d="M1404.47 1714.13C1404.33 1714.7 1404.05 1714.99 1403.76 1714.99L1381.52 1720.12C1381.23 1720.12 1380.95 1720.12 1380.8 1719.84C1380.66 1719.55 1380.66 1719.27 1380.66 1718.98L1386.51 1697.31C1386.65 1697.02 1386.79 1696.74 1387.08 1696.59C1387.36 1696.45 1387.65 1696.45 1387.79 1696.74L1404.19 1713.42C1404.47 1713.42 1404.62 1713.7 1404.47 1714.13ZM1382.66 1717.84L1401.91 1713.42L1387.79 1699.02L1382.66 1717.84Z" fill="#BBBDBF"/>
<path d="M1396.63 1706.72L1403.76 1713.99L1394.07 1716.27L1396.63 1706.72Z" fill="#C2C2C2"/>
<path d="M1404.47 1714.13C1404.33 1714.7 1404.05 1714.99 1403.76 1714.99L1394.07 1717.27C1393.78 1717.27 1393.49 1717.27 1393.35 1716.98C1393.21 1716.7 1393.21 1716.41 1393.21 1716.13L1395.78 1706.72C1395.92 1706.43 1396.06 1706.15 1396.35 1706C1396.63 1705.86 1396.92 1705.86 1397.06 1706.15L1404.19 1713.42C1404.47 1713.42 1404.62 1713.7 1404.47 1714.13Z" fill="#BBBDBF"/>
<path d="M953.459 1191.39C953.459 1192.25 953.459 1193.25 953.316 1194.1L930.074 1379.47C920.806 1380.47 911.252 1381.04 901.271 1381.04L912.678 1190.11C913.391 1179.41 922.231 1171 933.068 1171C944.476 1171 953.459 1180.27 953.459 1191.39Z" fill="#BBBDBF"/>
<path d="M4164.04 2926.3H4446.66C4455.5 2894.64 4484.44 2871.4 4518.95 2871.4H4236.33C4201.83 2871.4 4172.88 2894.64 4164.04 2926.3Z" fill="#909090"/>
<path d="M4238.76 2875.96C4280.11 2875.96 4313.76 2909.62 4313.76 2950.97V3025.97H4596.38V2950.97C4596.38 2909.47 4562.73 2875.96 4521.37 2875.96H4238.76Z" fill="white" stroke="#909090" stroke-width="6" stroke-miterlimit="10" stroke-linecap="round"/>
<path d="M4740.96 2920.45H4483.02L4498.7 2992.03H4756.65L4740.96 2920.45Z" fill="white" stroke="#C0C0C0" stroke-width="6" stroke-miterlimit="10"/>
<path d="M4873.43 3485.97H4271.84C4320.18 3485.97 4356.11 3441.2 4345.56 3394L4263 3023.12C4259.01 3004.87 4242.75 2991.89 4224.07 2991.89H4825.66C4844.34 2991.89 4860.45 3004.87 4864.59 3023.12L4947.15 3394C4957.7 3441.2 4921.77 3485.97 4873.43 3485.97Z" fill="white" stroke="#C0C0C0" stroke-width="6" stroke-miterlimit="10"/>
<path d="M4713.02 2997.74L4742.82 3131.63C4760.07 3208.91 4701.18 3282.35 4622.04 3282.35H4596.8C4501.84 3282.35 4419.71 3216.47 4399.03 3123.79L4370.94 2997.74" stroke="#D8D8D8" stroke-width="10" stroke-miterlimit="10"/>
<path d="M4742.96 2996.31L4772.76 3130.2C4790.01 3207.49 4731.12 3280.92 4651.99 3280.92H4626.75C4531.78 3280.92 4449.65 3215.04 4428.97 3122.36L4400.88 2996.31" stroke="#C0C0C0" stroke-width="10" stroke-miterlimit="10" stroke-linecap="round"/>
<path d="M4271.84 3485.97H4172.6C4124.26 3485.97 4088.32 3441.2 4098.88 3394L4181.44 3023.12C4185.43 3004.87 4201.68 2991.89 4220.36 2991.89H4224.36C4243.04 2991.89 4259.15 3004.87 4263.28 3023.12L4345.84 3394C4356.11 3441.2 4320.18 3485.97 4271.84 3485.97Z" fill="#C0C0C0" stroke="#C0C0C0" stroke-width="6" stroke-miterlimit="10"/>
<path d="M4224.07 2992.03V3400.13" stroke="white" stroke-width="6" stroke-miterlimit="10"/>
<path d="M4129.53 3472.56L4223.93 3398.99L4317.75 3473.13" stroke="white" stroke-width="6" stroke-miterlimit="10" stroke-linecap="round"/>
<path d="M276.579 2859.85C276.579 2859.85 97.6272 2629.99 126.003 2558.98C150.243 2498.38 205.426 2554.85 205.426 2554.85L276.579 2859.85Z" fill="#909090"/>
<path d="M408.191 3101.97C408.191 3101.97 594.557 2896.64 590.28 2822.78C586.002 2748.91 518.556 2783.56 518.556 2783.56L408.191 3101.97Z" fill="#909090"/>
<path d="M602.685 3282.63C602.685 3344.52 576.448 3400.98 533.386 3444.05C498.736 3478.55 451.681 3497.66 402.772 3497.66H250.913C202.004 3497.66 154.949 3478.55 120.299 3444.05C77.2367 3401.13 51 3344.52 51 3282.63C51 3194.51 104.044 3117.37 183.61 3074.59H470.218C549.641 3117.23 602.685 3194.51 602.685 3282.63Z" fill="#C0C0C0"/>
<path d="M326.914 3122.79C407.949 3122.79 473.64 3105.36 473.64 3083.86C473.64 3062.36 407.949 3044.93 326.914 3044.93C245.879 3044.93 180.188 3062.36 180.188 3083.86C180.188 3105.36 245.879 3122.79 326.914 3122.79Z" fill="#909090"/>
<path d="M408.19 3101.97C384.948 3106.1 357 3108.53 326.914 3108.53C298.395 3108.53 271.731 3106.39 249.344 3102.68C196.3 3046.36 67.1126 2896.92 114.881 2823.06C174.484 2730.81 276.721 2859.99 276.721 2859.99C276.721 2859.99 156.089 2489.54 219.97 2407.27C283.851 2324.99 333.901 2471.15 333.901 2471.15C333.901 2471.15 366.126 2293.76 452.679 2310.73C535.239 2326.99 407.335 2738.36 395.357 2776.29C401.489 2758.04 438.562 2657.37 510.856 2666.64C579.3 2675.34 445.835 3010.57 408.19 3101.97Z" fill="white" stroke="#909090" stroke-width="6" stroke-miterlimit="10" stroke-linecap="round"/>
<path d="M452.537 2310.59C452.537 2310.59 330.479 2649.1 326.914 3108.53" stroke="#909090" stroke-width="6" stroke-miterlimit="10" stroke-linecap="round"/>
<path d="M333.758 2471C340.317 2507.79 365.271 2671.63 352.58 2755.33" stroke="#909090" stroke-width="6" stroke-miterlimit="10" stroke-linecap="round"/>
<path d="M510.714 2666.5C510.714 2666.5 371.545 2845.59 356.002 3107.67" stroke="#909090" stroke-width="6" stroke-miterlimit="10" stroke-linecap="round"/>
<path d="M128.427 2806.09C128.427 2806.09 294.688 2911.47 297.54 3107.82" stroke="#909090" stroke-width="6" stroke-miterlimit="10" stroke-linecap="round"/>
<path d="M186.747 2756.33C202.812 2756.33 215.835 2743.31 215.835 2727.24C215.835 2711.18 202.812 2698.15 186.747 2698.15C170.681 2698.15 157.658 2711.18 157.658 2727.24C157.658 2743.31 170.681 2756.33 186.747 2756.33Z" stroke="#C0C0C0" stroke-width="6" stroke-miterlimit="10"/>
<path d="M119.444 2712.41C126.846 2712.41 132.847 2706.41 132.847 2699.01C132.847 2691.6 126.846 2685.6 119.444 2685.6C112.041 2685.6 106.04 2691.6 106.04 2699.01C106.04 2706.41 112.041 2712.41 119.444 2712.41Z" stroke="#C0C0C0" stroke-width="6" stroke-miterlimit="10"/>
<path d="M138.694 3049.5C146.096 3049.5 152.097 3043.49 152.097 3036.09C152.097 3028.69 146.096 3022.69 138.694 3022.69C131.291 3022.69 125.29 3028.69 125.29 3036.09C125.29 3043.49 131.291 3049.5 138.694 3049.5Z" stroke="#C0C0C0" stroke-width="6" stroke-miterlimit="10"/>
<path d="M495.456 2635.41C511.522 2635.41 524.545 2622.39 524.545 2606.32C524.545 2590.26 511.522 2577.23 495.456 2577.23C479.391 2577.23 466.368 2590.26 466.368 2606.32C466.368 2622.39 479.391 2635.41 495.456 2635.41Z" stroke="#C0C0C0" stroke-width="6" stroke-miterlimit="10"/>
<path d="M504.012 2527.9C511.415 2527.9 517.416 2521.9 517.416 2514.49C517.416 2507.09 511.415 2501.09 504.012 2501.09C496.609 2501.09 490.609 2507.09 490.609 2514.49C490.609 2521.9 496.609 2527.9 504.012 2527.9Z" stroke="#C0C0C0" stroke-width="6" stroke-miterlimit="10"/>
<path d="M552.636 2635.41C560.038 2635.41 566.039 2629.41 566.039 2622.01C566.039 2614.61 560.038 2608.61 552.636 2608.61C545.233 2608.61 539.232 2614.61 539.232 2622.01C539.232 2629.41 545.233 2635.41 552.636 2635.41Z" stroke="#C0C0C0" stroke-width="6" stroke-miterlimit="10"/>
<path d="M3502.56 560.996L3789.6 641.988C3915.22 676.352 4006.33 785.292 4017.74 915.05L4061.52 1399.15H2542.49L2682.8 855.161C2705.76 764.474 2774.49 692.608 2864.04 665.658L3199.27 560.996H3502.56Z" fill="#BBBDBF"/>
<path d="M2627.91 1357.37C2635.54 1357.37 2641.74 1351.17 2641.74 1343.54C2641.74 1335.9 2635.54 1329.7 2627.91 1329.7C2620.27 1329.7 2614.07 1335.9 2614.07 1343.54C2614.07 1351.17 2620.27 1357.37 2627.91 1357.37Z" fill="white"/>
<path d="M2771.92 1357.37C2779.56 1357.37 2785.75 1351.17 2785.75 1343.54C2785.75 1335.9 2779.56 1329.7 2771.92 1329.7C2764.28 1329.7 2758.09 1335.9 2758.09 1343.54C2758.09 1351.17 2764.28 1357.37 2771.92 1357.37Z" fill="white"/>
<path d="M2915.94 1357.37C2923.58 1357.37 2929.77 1351.17 2929.77 1343.54C2929.77 1335.9 2923.58 1329.7 2915.94 1329.7C2908.3 1329.7 2902.11 1335.9 2902.11 1343.54C2902.11 1351.17 2908.3 1357.37 2915.94 1357.37Z" fill="white"/>
<path d="M3059.96 1357.37C3067.6 1357.37 3073.79 1351.17 3073.79 1343.54C3073.79 1335.9 3067.6 1329.7 3059.96 1329.7C3052.32 1329.7 3046.13 1335.9 3046.13 1343.54C3046.13 1351.17 3052.32 1357.37 3059.96 1357.37Z" fill="white"/>
<path d="M3203.97 1357.37C3211.61 1357.37 3217.8 1351.17 3217.8 1343.54C3217.8 1335.9 3211.61 1329.7 3203.97 1329.7C3196.33 1329.7 3190.14 1335.9 3190.14 1343.54C3190.14 1351.17 3196.33 1357.37 3203.97 1357.37Z" fill="white"/>
<path d="M3347.99 1357.37C3355.63 1357.37 3361.82 1351.17 3361.82 1343.54C3361.82 1335.9 3355.63 1329.7 3347.99 1329.7C3340.35 1329.7 3334.16 1335.9 3334.16 1343.54C3334.16 1351.17 3340.35 1357.37 3347.99 1357.37Z" fill="white"/>
<path d="M3492.01 1357.37C3499.65 1357.37 3505.84 1351.17 3505.84 1343.54C3505.84 1335.9 3499.65 1329.7 3492.01 1329.7C3484.37 1329.7 3478.18 1335.9 3478.18 1343.54C3478.18 1351.17 3484.37 1357.37 3492.01 1357.37Z" fill="white"/>
<path d="M3636.02 1357.37C3643.66 1357.37 3649.86 1351.17 3649.86 1343.54C3649.86 1335.9 3643.66 1329.7 3636.02 1329.7C3628.39 1329.7 3622.19 1335.9 3622.19 1343.54C3622.19 1351.17 3628.39 1357.37 3636.02 1357.37Z" fill="white"/>
<path d="M3780.04 1357.37C3787.68 1357.37 3793.87 1351.17 3793.87 1343.54C3793.87 1335.9 3787.68 1329.7 3780.04 1329.7C3772.4 1329.7 3766.21 1335.9 3766.21 1343.54C3766.21 1351.17 3772.4 1357.37 3780.04 1357.37Z" fill="white"/>
<path d="M3924.06 1357.37C3931.7 1357.37 3937.89 1351.17 3937.89 1343.54C3937.89 1335.9 3931.7 1329.7 3924.06 1329.7C3916.42 1329.7 3910.23 1335.9 3910.23 1343.54C3910.23 1351.17 3916.42 1357.37 3924.06 1357.37Z" fill="white"/>
<path d="M2702.05 1260.41C2709.69 1260.41 2715.88 1254.21 2715.88 1246.57C2715.88 1238.94 2709.69 1232.74 2702.05 1232.74C2694.41 1232.74 2688.22 1238.94 2688.22 1246.57C2688.22 1254.21 2694.41 1260.41 2702.05 1260.41Z" fill="white"/>
<path d="M2846.07 1260.41C2853.71 1260.41 2859.9 1254.21 2859.9 1246.57C2859.9 1238.94 2853.71 1232.74 2846.07 1232.74C2838.43 1232.74 2832.24 1238.94 2832.24 1246.57C2832.24 1254.21 2838.43 1260.41 2846.07 1260.41Z" fill="white"/>
<path d="M2990.09 1260.41C2997.73 1260.41 3003.92 1254.21 3003.92 1246.57C3003.92 1238.94 2997.73 1232.74 2990.09 1232.74C2982.45 1232.74 2976.26 1238.94 2976.26 1246.57C2976.26 1254.21 2982.45 1260.41 2990.09 1260.41Z" fill="white"/>
<path d="M3134.1 1260.41C3141.74 1260.41 3147.94 1254.21 3147.94 1246.57C3147.94 1238.94 3141.74 1232.74 3134.1 1232.74C3126.47 1232.74 3120.27 1238.94 3120.27 1246.57C3120.27 1254.21 3126.47 1260.41 3134.1 1260.41Z" fill="white"/>
<path d="M3278.12 1260.41C3285.76 1260.41 3291.95 1254.21 3291.95 1246.57C3291.95 1238.94 3285.76 1232.74 3278.12 1232.74C3270.48 1232.74 3264.29 1238.94 3264.29 1246.57C3264.29 1254.21 3270.48 1260.41 3278.12 1260.41Z" fill="white"/>
<path d="M3422.14 1260.41C3429.78 1260.41 3435.97 1254.21 3435.97 1246.57C3435.97 1238.94 3429.78 1232.74 3422.14 1232.74C3414.5 1232.74 3408.31 1238.94 3408.31 1246.57C3408.31 1254.21 3414.5 1260.41 3422.14 1260.41Z" fill="white"/>
<path d="M3566.16 1260.41C3573.79 1260.41 3579.99 1254.21 3579.99 1246.57C3579.99 1238.94 3573.79 1232.74 3566.16 1232.74C3558.52 1232.74 3552.32 1238.94 3552.32 1246.57C3552.32 1254.21 3558.52 1260.41 3566.16 1260.41Z" fill="white"/>
<path d="M3710.17 1260.41C3717.81 1260.41 3724 1254.21 3724 1246.57C3724 1238.94 3717.81 1232.74 3710.17 1232.74C3702.53 1232.74 3696.34 1238.94 3696.34 1246.57C3696.34 1254.21 3702.53 1260.41 3710.17 1260.41Z" fill="white"/>
<path d="M3854.19 1260.41C3861.83 1260.41 3868.02 1254.21 3868.02 1246.57C3868.02 1238.94 3861.83 1232.74 3854.19 1232.74C3846.55 1232.74 3840.36 1238.94 3840.36 1246.57C3840.36 1254.21 3846.55 1260.41 3854.19 1260.41Z" fill="white"/>
<path d="M3998.21 1260.41C4005.85 1260.41 4012.04 1254.21 4012.04 1246.57C4012.04 1238.94 4005.85 1232.74 3998.21 1232.74C3990.57 1232.74 3984.38 1238.94 3984.38 1246.57C3984.38 1254.21 3990.57 1260.41 3998.21 1260.41Z" fill="white"/>
<path d="M2627.91 1160.59C2635.54 1160.59 2641.74 1154.4 2641.74 1146.76C2641.74 1139.12 2635.54 1132.93 2627.91 1132.93C2620.27 1132.93 2614.07 1139.12 2614.07 1146.76C2614.07 1154.4 2620.27 1160.59 2627.91 1160.59Z" fill="white"/>
<path d="M2771.92 1160.59C2779.56 1160.59 2785.75 1154.4 2785.75 1146.76C2785.75 1139.12 2779.56 1132.93 2771.92 1132.93C2764.28 1132.93 2758.09 1139.12 2758.09 1146.76C2758.09 1154.4 2764.28 1160.59 2771.92 1160.59Z" fill="white"/>
<path d="M2915.94 1160.59C2923.58 1160.59 2929.77 1154.4 2929.77 1146.76C2929.77 1139.12 2923.58 1132.93 2915.94 1132.93C2908.3 1132.93 2902.11 1139.12 2902.11 1146.76C2902.11 1154.4 2908.3 1160.59 2915.94 1160.59Z" fill="white"/>
<path d="M3059.96 1160.59C3067.6 1160.59 3073.79 1154.4 3073.79 1146.76C3073.79 1139.12 3067.6 1132.93 3059.96 1132.93C3052.32 1132.93 3046.13 1139.12 3046.13 1146.76C3046.13 1154.4 3052.32 1160.59 3059.96 1160.59Z" fill="white"/>
<path d="M3203.97 1160.59C3211.61 1160.59 3217.81 1154.4 3217.81 1146.76C3217.81 1139.12 3211.61 1132.93 3203.97 1132.93C3196.34 1132.93 3190.14 1139.12 3190.14 1146.76C3190.14 1154.4 3196.34 1160.59 3203.97 1160.59Z" fill="white"/>
<path d="M3347.99 1160.59C3355.63 1160.59 3361.82 1154.4 3361.82 1146.76C3361.82 1139.12 3355.63 1132.93 3347.99 1132.93C3340.35 1132.93 3334.16 1139.12 3334.16 1146.76C3334.16 1154.4 3340.35 1160.59 3347.99 1160.59Z" fill="white"/>
<path d="M3492.01 1160.59C3499.65 1160.59 3505.84 1154.4 3505.84 1146.76C3505.84 1139.12 3499.65 1132.93 3492.01 1132.93C3484.37 1132.93 3478.18 1139.12 3478.18 1146.76C3478.18 1154.4 3484.37 1160.59 3492.01 1160.59Z" fill="white"/>
<path d="M3636.02 1160.59C3643.66 1160.59 3649.86 1154.4 3649.86 1146.76C3649.86 1139.12 3643.66 1132.93 3636.02 1132.93C3628.39 1132.93 3622.19 1139.12 3622.19 1146.76C3622.19 1154.4 3628.39 1160.59 3636.02 1160.59Z" fill="white"/>
<path d="M3780.04 1160.59C3787.68 1160.59 3793.87 1154.4 3793.87 1146.76C3793.87 1139.12 3787.68 1132.93 3780.04 1132.93C3772.4 1132.93 3766.21 1139.12 3766.21 1146.76C3766.21 1154.4 3772.4 1160.59 3780.04 1160.59Z" fill="white"/>
<path d="M3924.06 1160.59C3931.7 1160.59 3937.89 1154.4 3937.89 1146.76C3937.89 1139.12 3931.7 1132.93 3924.06 1132.93C3916.42 1132.93 3910.23 1139.12 3910.23 1146.76C3910.23 1154.4 3916.42 1160.59 3924.06 1160.59Z" fill="white"/>
<path d="M2702.05 1067.91C2709.69 1067.91 2715.88 1061.72 2715.88 1054.08C2715.88 1046.44 2709.69 1040.25 2702.05 1040.25C2694.41 1040.25 2688.22 1046.44 2688.22 1054.08C2688.22 1061.72 2694.41 1067.91 2702.05 1067.91Z" fill="white"/>
<path d="M2846.07 1067.91C2853.71 1067.91 2859.9 1061.72 2859.9 1054.08C2859.9 1046.44 2853.71 1040.25 2846.07 1040.25C2838.43 1040.25 2832.24 1046.44 2832.24 1054.08C2832.24 1061.72 2838.43 1067.91 2846.07 1067.91Z" fill="white"/>
<path d="M2990.09 1067.91C2997.73 1067.91 3003.92 1061.72 3003.92 1054.08C3003.92 1046.44 2997.73 1040.25 2990.09 1040.25C2982.45 1040.25 2976.26 1046.44 2976.26 1054.08C2976.26 1061.72 2982.45 1067.91 2990.09 1067.91Z" fill="white"/>
<path d="M3134.1 1067.91C3141.74 1067.91 3147.94 1061.72 3147.94 1054.08C3147.94 1046.44 3141.74 1040.25 3134.1 1040.25C3126.47 1040.25 3120.27 1046.44 3120.27 1054.08C3120.27 1061.72 3126.47 1067.91 3134.1 1067.91Z" fill="white"/>
<path d="M3278.12 1067.91C3285.76 1067.91 3291.95 1061.72 3291.95 1054.08C3291.95 1046.44 3285.76 1040.25 3278.12 1040.25C3270.48 1040.25 3264.29 1046.44 3264.29 1054.08C3264.29 1061.72 3270.48 1067.91 3278.12 1067.91Z" fill="white"/>
<path d="M3422.14 1067.91C3429.78 1067.91 3435.97 1061.72 3435.97 1054.08C3435.97 1046.44 3429.78 1040.25 3422.14 1040.25C3414.5 1040.25 3408.31 1046.44 3408.31 1054.08C3408.31 1061.72 3414.5 1067.91 3422.14 1067.91Z" fill="white"/>
<path d="M3566.15 1067.91C3573.79 1067.91 3579.99 1061.72 3579.99 1054.08C3579.99 1046.44 3573.79 1040.25 3566.15 1040.25C3558.52 1040.25 3552.32 1046.44 3552.32 1054.08C3552.32 1061.72 3558.52 1067.91 3566.15 1067.91Z" fill="white"/>
<path d="M3714.45 1067.91C3722.09 1067.91 3728.28 1061.72 3728.28 1054.08C3728.28 1046.44 3722.09 1040.25 3714.45 1040.25C3706.81 1040.25 3700.62 1046.44 3700.62 1054.08C3700.62 1061.72 3706.81 1067.91 3714.45 1067.91Z" fill="white"/>
<path d="M3854.19 1067.91C3861.83 1067.91 3868.02 1061.72 3868.02 1054.08C3868.02 1046.44 3861.83 1040.25 3854.19 1040.25C3846.55 1040.25 3840.36 1046.44 3840.36 1054.08C3840.36 1061.72 3846.55 1067.91 3854.19 1067.91Z" fill="white"/>
<path d="M3998.21 1067.91C4005.85 1067.91 4012.04 1061.72 4012.04 1054.08C4012.04 1046.44 4005.85 1040.25 3998.21 1040.25C3990.57 1040.25 3984.38 1046.44 3984.38 1054.08C3984.38 1061.72 3990.57 1067.91 3998.21 1067.91Z" fill="white"/>
<path d="M2771.92 972.372C2779.56 972.372 2785.75 966.179 2785.75 958.54C2785.75 950.901 2779.56 944.709 2771.92 944.709C2764.28 944.709 2758.09 950.901 2758.09 958.54C2758.09 966.179 2764.28 972.372 2771.92 972.372Z" fill="white"/>
<path d="M3059.96 972.372C3067.6 972.372 3073.79 966.179 3073.79 958.54C3073.79 950.901 3067.6 944.709 3059.96 944.709C3052.32 944.709 3046.13 950.901 3046.13 958.54C3046.13 966.179 3052.32 972.372 3059.96 972.372Z" fill="white"/>
<path d="M3203.97 972.372C3211.61 972.372 3217.81 966.179 3217.81 958.54C3217.81 950.901 3211.61 944.709 3203.97 944.709C3196.34 944.709 3190.14 950.901 3190.14 958.54C3190.14 966.179 3196.34 972.372 3203.97 972.372Z" fill="white"/>
<path d="M3347.99 972.372C3355.63 972.372 3361.82 966.179 3361.82 958.54C3361.82 950.901 3355.63 944.709 3347.99 944.709C3340.35 944.709 3334.16 950.901 3334.16 958.54C3334.16 966.179 3340.35 972.372 3347.99 972.372Z" fill="white"/>
<path d="M3492.01 972.372C3499.65 972.372 3505.84 966.179 3505.84 958.54C3505.84 950.901 3499.65 944.709 3492.01 944.709C3484.37 944.709 3478.18 950.901 3478.18 958.54C3478.18 966.179 3484.37 972.372 3492.01 972.372Z" fill="white"/>
<path d="M3636.03 972.372C3643.66 972.372 3649.86 966.179 3649.86 958.54C3649.86 950.901 3643.66 944.709 3636.03 944.709C3628.39 944.709 3622.19 950.901 3622.19 958.54C3622.19 966.179 3628.39 972.372 3636.03 972.372Z" fill="white"/>
<path d="M3780.04 972.372C3787.68 972.372 3793.87 966.179 3793.87 958.54C3793.87 950.901 3787.68 944.709 3780.04 944.709C3772.4 944.709 3766.21 950.901 3766.21 958.54C3766.21 966.179 3772.4 972.372 3780.04 972.372Z" fill="white"/>
<path d="M3924.06 972.372C3931.7 972.372 3937.89 966.179 3937.89 958.54C3937.89 950.901 3931.7 944.709 3924.06 944.709C3916.42 944.709 3910.23 950.901 3910.23 958.54C3910.23 966.179 3916.42 972.372 3924.06 972.372Z" fill="white"/>
<path d="M2702.05 878.261C2709.69 878.261 2715.88 872.069 2715.88 864.43C2715.88 856.791 2709.69 850.599 2702.05 850.599C2694.41 850.599 2688.22 856.791 2688.22 864.43C2688.22 872.069 2694.41 878.261 2702.05 878.261Z" fill="white"/>
<path d="M2846.07 878.261C2853.71 878.261 2859.9 872.069 2859.9 864.43C2859.9 856.791 2853.71 850.599 2846.07 850.599C2838.43 850.599 2832.24 856.791 2832.24 864.43C2832.24 872.069 2838.43 878.261 2846.07 878.261Z" fill="white"/>
<path d="M2990.09 878.261C2997.73 878.261 3003.92 872.069 3003.92 864.43C3003.92 856.791 2997.73 850.599 2990.09 850.599C2982.45 850.599 2976.26 856.791 2976.26 864.43C2976.26 872.069 2982.45 878.261 2990.09 878.261Z" fill="white"/>
<path d="M3134.1 878.261C3141.74 878.261 3147.94 872.069 3147.94 864.43C3147.94 856.791 3141.74 850.599 3134.1 850.599C3126.47 850.599 3120.27 856.791 3120.27 864.43C3120.27 872.069 3126.47 878.261 3134.1 878.261Z" fill="white"/>
<path d="M3278.12 878.261C3285.76 878.261 3291.95 872.069 3291.95 864.43C3291.95 856.791 3285.76 850.599 3278.12 850.599C3270.48 850.599 3264.29 856.791 3264.29 864.43C3264.29 872.069 3270.48 878.261 3278.12 878.261Z" fill="white"/>
<path d="M3422.14 878.261C3429.78 878.261 3435.97 872.069 3435.97 864.43C3435.97 856.791 3429.78 850.599 3422.14 850.599C3414.5 850.599 3408.31 856.791 3408.31 864.43C3408.31 872.069 3414.5 878.261 3422.14 878.261Z" fill="white"/>
<path d="M3566.16 878.261C3573.79 878.261 3579.99 872.069 3579.99 864.43C3579.99 856.791 3573.79 850.599 3566.16 850.599C3558.52 850.599 3552.32 856.791 3552.32 864.43C3552.32 872.069 3558.52 878.261 3566.16 878.261Z" fill="white"/>
<path d="M3710.17 878.261C3717.81 878.261 3724 872.069 3724 864.43C3724 856.791 3717.81 850.599 3710.17 850.599C3702.53 850.599 3696.34 856.791 3696.34 864.43C3696.34 872.069 3702.53 878.261 3710.17 878.261Z" fill="white"/>
<path d="M3854.19 878.261C3861.83 878.261 3868.02 872.069 3868.02 864.43C3868.02 856.791 3861.83 850.599 3854.19 850.599C3846.55 850.599 3840.36 856.791 3840.36 864.43C3840.36 872.069 3846.55 878.261 3854.19 878.261Z" fill="white"/>
<path d="M3991.08 878.261C3998.72 878.261 4004.91 872.069 4004.91 864.43C4004.91 856.791 3998.72 850.599 3991.08 850.599C3983.44 850.599 3977.25 856.791 3977.25 864.43C3977.25 872.069 3983.44 878.261 3991.08 878.261Z" fill="white"/>
<path d="M2771.92 785.577C2779.56 785.577 2785.75 779.384 2785.75 771.745C2785.75 764.106 2779.56 757.914 2771.92 757.914C2764.28 757.914 2758.09 764.106 2758.09 771.745C2758.09 779.384 2764.28 785.577 2771.92 785.577Z" fill="white"/>
<path d="M2915.94 785.577C2923.58 785.577 2929.77 779.384 2929.77 771.745C2929.77 764.106 2923.58 757.914 2915.94 757.914C2908.3 757.914 2902.11 764.106 2902.11 771.745C2902.11 779.384 2908.3 785.577 2915.94 785.577Z" fill="white"/>
<path d="M3059.96 785.577C3067.6 785.577 3073.79 779.384 3073.79 771.745C3073.79 764.106 3067.6 757.914 3059.96 757.914C3052.32 757.914 3046.13 764.106 3046.13 771.745C3046.13 779.384 3052.32 785.577 3059.96 785.577Z" fill="white"/>
<path d="M3203.97 785.577C3211.61 785.577 3217.81 779.384 3217.81 771.745C3217.81 764.106 3211.61 757.914 3203.97 757.914C3196.34 757.914 3190.14 764.106 3190.14 771.745C3190.14 779.384 3196.34 785.577 3203.97 785.577Z" fill="white"/>
<path d="M3347.99 785.577C3355.63 785.577 3361.82 779.384 3361.82 771.745C3361.82 764.106 3355.63 757.914 3347.99 757.914C3340.35 757.914 3334.16 764.106 3334.16 771.745C3334.16 779.384 3340.35 785.577 3347.99 785.577Z" fill="white"/>
<path d="M3492.01 785.577C3499.65 785.577 3505.84 779.384 3505.84 771.745C3505.84 764.106 3499.65 757.914 3492.01 757.914C3484.37 757.914 3478.18 764.106 3478.18 771.745C3478.18 779.384 3484.37 785.577 3492.01 785.577Z" fill="white"/>
<path d="M3636.03 785.577C3643.66 785.577 3649.86 779.384 3649.86 771.745C3649.86 764.106 3643.66 757.914 3636.03 757.914C3628.39 757.914 3622.19 764.106 3622.19 771.745C3622.19 779.384 3628.39 785.577 3636.03 785.577Z" fill="white"/>
<path d="M3780.04 785.577C3787.68 785.577 3793.87 779.384 3793.87 771.745C3793.87 764.106 3787.68 757.914 3780.04 757.914C3772.4 757.914 3766.21 764.106 3766.21 771.745C3766.21 779.384 3772.4 785.577 3780.04 785.577Z" fill="white"/>
<path d="M3924.06 785.577C3931.7 785.577 3937.89 779.384 3937.89 771.745C3937.89 764.106 3931.7 757.914 3924.06 757.914C3916.42 757.914 3910.23 764.106 3910.23 771.745C3910.23 779.384 3916.42 785.577 3924.06 785.577Z" fill="white"/>
<path d="M3203.97 611.616C3211.61 611.616 3217.8 605.423 3217.8 597.784C3217.8 590.146 3211.61 583.953 3203.97 583.953C3196.33 583.953 3190.14 590.146 3190.14 597.784C3190.14 605.423 3196.33 611.616 3203.97 611.616Z" fill="white"/>
<path d="M3347.99 611.616C3355.63 611.616 3361.82 605.423 3361.82 597.784C3361.82 590.146 3355.63 583.953 3347.99 583.953C3340.35 583.953 3334.16 590.146 3334.16 597.784C3334.16 605.423 3340.35 611.616 3347.99 611.616Z" fill="white"/>
<path d="M3492.01 611.616C3499.65 611.616 3505.84 605.423 3505.84 597.784C3505.84 590.146 3499.65 583.953 3492.01 583.953C3484.37 583.953 3478.18 590.146 3478.18 597.784C3478.18 605.423 3484.37 611.616 3492.01 611.616Z" fill="white"/>
<path d="M3649.14 602.347C3647.29 607.766 3642.16 611.616 3636.02 611.616C3628.47 611.616 3622.19 605.484 3622.19 597.784C3622.19 596.786 3622.34 595.788 3622.48 594.79L3649.14 602.347Z" fill="white"/>
<path d="M2846.07 698.595C2853.71 698.595 2859.9 692.403 2859.9 684.764C2859.9 677.125 2853.71 670.933 2846.07 670.933C2838.43 670.933 2832.24 677.125 2832.24 684.764C2832.24 692.403 2838.43 698.595 2846.07 698.595Z" fill="white"/>
<path d="M2990.09 698.595C2997.73 698.595 3003.92 692.403 3003.92 684.764C3003.92 677.125 2997.73 670.933 2990.09 670.933C2982.45 670.933 2976.26 677.125 2976.26 684.764C2976.26 692.403 2982.45 698.595 2990.09 698.595Z" fill="white"/>
<path d="M3120.42 680.202C3128.05 680.202 3134.25 674.009 3134.25 666.37C3134.25 658.731 3128.05 652.539 3120.42 652.539C3112.78 652.539 3106.58 658.731 3106.58 666.37C3106.58 674.009 3112.78 680.202 3120.42 680.202Z" fill="white"/>
<path d="M3278.12 698.595C3285.76 698.595 3291.95 692.403 3291.95 684.764C3291.95 677.125 3285.76 670.933 3278.12 670.933C3270.48 670.933 3264.29 677.125 3264.29 684.764C3264.29 692.403 3270.48 698.595 3278.12 698.595Z" fill="white"/>
<path d="M3422.14 698.595C3429.78 698.595 3435.97 692.403 3435.97 684.764C3435.97 677.125 3429.78 670.933 3422.14 670.933C3414.5 670.933 3408.31 677.125 3408.31 684.764C3408.31 692.403 3414.5 698.595 3422.14 698.595Z" fill="white"/>
<path d="M3566.16 698.595C3573.8 698.595 3579.99 692.403 3579.99 684.764C3579.99 677.125 3573.8 670.933 3566.16 670.933C3558.52 670.933 3552.32 677.125 3552.32 684.764C3552.32 692.403 3558.52 698.595 3566.16 698.595Z" fill="white"/>
<path d="M3710.17 698.595C3717.81 698.595 3724 692.403 3724 684.764C3724 677.125 3717.81 670.933 3710.17 670.933C3702.53 670.933 3696.34 677.125 3696.34 684.764C3696.34 692.403 3702.53 698.595 3710.17 698.595Z" fill="white"/>
<path d="M3854.19 698.595C3861.83 698.595 3868.02 692.403 3868.02 684.764C3868.02 677.125 3861.83 670.933 3854.19 670.933C3846.55 670.933 3840.36 677.125 3840.36 684.764C3840.36 692.403 3846.55 698.595 3854.19 698.595Z" fill="white"/>
<path d="M3730.85 1403.28L3699.48 976.507" stroke="white" stroke-width="6" stroke-miterlimit="10" stroke-linecap="round"/>
<path d="M2988.66 1403.28V1273.95L2959 1256.56C2908.95 1227.18 2883.86 1168.86 2896.83 1112.4L2942.32 913.909" stroke="white" stroke-width="6" stroke-miterlimit="10" stroke-linecap="round"/>
<path d="M3192 559L3286.96 834.058L3507.27 559" stroke="white" stroke-width="6" stroke-miterlimit="10" stroke-linecap="round"/>
<path d="M3445.52 633.86L3538.78 741.944L3635.31 604.344" stroke="white" stroke-width="6" stroke-miterlimit="10" stroke-linecap="round"/>
<path d="M3218.52 633.86L3109.72 726.259L3046.27 606.34" stroke="white" stroke-width="6" stroke-miterlimit="10" stroke-linecap="round"/>
<path d="M2901.82 913.909L2921.36 1005.02" stroke="white" stroke-width="6" stroke-miterlimit="10" stroke-linecap="round"/>
<path d="M3302.08 1773.16H2911.23L2738.41 1503.24H3129.26L3302.08 1773.16Z" fill="#C0C0C0"/>
<path d="M3066.37 1714.56H2675.39L2502.71 1444.78H2893.55L3066.37 1714.56Z" fill="white" stroke="#909090" stroke-width="6" stroke-miterlimit="10" stroke-linejoin="round"/>
<path d="M2586.41 1484.13L2600.96 1490.41C2610.65 1494.54 2619.35 1494.69 2622.63 1490.69L2627.91 1483.99C2631.04 1480 2639.88 1480 2649.58 1484.28L2664.13 1490.55C2673.82 1494.69 2682.52 1494.83 2685.8 1490.84L2691.64 1483.28C2694.78 1479.29 2703.62 1479.29 2713.32 1483.56L2732.57 1491.98C2742.27 1496.11 2750.96 1496.25 2754.24 1492.26L2761.23 1483.42C2764.37 1479.43 2773.21 1479.43 2782.9 1483.71L2805 1493.4C2814.7 1497.54 2823.4 1497.68 2826.68 1493.69L2834.24 1483.99" stroke="#909090" stroke-width="5" stroke-miterlimit="10" stroke-linecap="round"/>
<path d="M2645.59 1547.44C2655.28 1551.58 2663.98 1551.72 2667.26 1547.73L2672.54 1541.03C2675.67 1537.04 2684.52 1537.04 2694.21 1541.31L2708.76 1547.59C2718.45 1551.72 2727.15 1551.87 2730.43 1547.87L2736.28 1540.32C2739.41 1536.32 2748.25 1536.32 2757.95 1540.6L2777.2 1549.01C2786.9 1553.15 2795.59 1553.29 2798.87 1549.3L2805.86 1540.46C2809 1536.47 2817.84 1536.47 2827.53 1540.74L2849.64 1550.44C2859.33 1554.57 2868.03 1554.72 2871.31 1550.72L2878.87 1541.03" stroke="#909090" stroke-width="5" stroke-miterlimit="10" stroke-linecap="round"/>
<path d="M2675.67 1598.06L2690.22 1604.34C2699.92 1608.47 2708.61 1608.61 2711.89 1604.62L2717.17 1597.92C2720.31 1593.93 2729.15 1593.93 2738.84 1598.21L2753.39 1604.48C2763.08 1608.62 2771.78 1608.76 2775.06 1604.76L2780.91 1597.21C2784.04 1593.22 2792.88 1593.22 2802.58 1597.49L2821.83 1605.91C2831.53 1610.04 2840.22 1610.18 2843.5 1606.19L2850.49 1597.35C2853.63 1593.36 2862.47 1593.36 2872.17 1597.64L2894.27 1607.33C2903.96 1611.47 2912.66 1611.61 2915.94 1607.62L2923.5 1597.92" stroke="#909090" stroke-width="5" stroke-miterlimit="10" stroke-linecap="round"/>
<path d="M2720.31 1655.1L2734.85 1661.37C2744.55 1665.51 2753.24 1665.65 2756.52 1661.66L2761.8 1654.96C2764.94 1650.97 2773.78 1650.97 2783.47 1655.24L2798.02 1661.52C2807.71 1665.65 2816.41 1665.79 2819.69 1661.8L2825.54 1654.24C2828.68 1650.25 2837.52 1650.25 2847.21 1654.53L2866.46 1662.94C2876.16 1667.08 2884.86 1667.22 2888.14 1663.23L2895.12 1654.39C2898.26 1650.39 2907.1 1650.39 2916.8 1654.67L2938.9 1664.37C2948.59 1668.5 2957.29 1668.65 2960.57 1664.65L2968.13 1654.96" stroke="#909090" stroke-width="5" stroke-miterlimit="10" stroke-linecap="round"/>
<path d="M3143.09 1559.42H3892.83C3992.07 1559.42 4069.79 1474.01 4060.38 1375.34C4050.96 1276.23 3958.14 1206.79 3860.46 1225.9L2997.64 1346.1C2964.99 1350.67 2936.33 1370.49 2920.79 1399.58L2844.36 1541.6C2841.65 1545.16 2839.8 1549.3 2838.66 1553.57L2809.99 1664.37H2826.11C2851.06 1664.37 2874.16 1650.54 2885.85 1628.43L2900.25 1601.48L3066.09 1619.45C3097.17 1623.3 3126.69 1602.06 3137.81 1572.97L3143.09 1559.42Z" fill="#5E5E5E"/>
<path d="M2901.82 1596.64L2951.87 1492.97" stroke="#444444" stroke-width="6" stroke-miterlimit="10" stroke-linecap="round"/>
<path d="M2968.56 1603.2L3018.61 1499.53" stroke="#444444" stroke-width="6" stroke-miterlimit="10" stroke-linecap="round"/>
<path d="M3033.86 1611.32L3083.77 1507.66" stroke="#444444" stroke-width="6" stroke-miterlimit="10" stroke-linecap="round"/>
<path d="M3143.09 1559.42L3165.9 1491.4" stroke="#444444" stroke-width="6" stroke-miterlimit="10" stroke-linecap="round"/>
<path d="M3327.6 72.7657C3327.6 72.7657 3425.7 11.1663 3521.52 88.8785C3611.93 162.313 3569.72 307.043 3536.64 282.802C3508.26 262.127 3729.42 191.544 3798.72 355.381C3877.29 541.035 3700.33 646.41 3498.57 554.581H3205.83L2894.55 651.685C2894.55 651.685 2736.42 571.264 2822.4 414.414C2901.82 269.684 3091.61 321.302 3070.22 357.092C3040.14 407.284 2911.52 248.438 3001.92 98.4321C3097.46 -60.1292 3314.48 -1.09647 3327.6 72.7657Z" fill="white" stroke="#C0C0C0" stroke-width="6" stroke-miterlimit="10"/>
<path d="M3390.77 279.666C3390.77 279.666 3301.93 237.459 3318.33 150.906C3318.33 150.906 3277.69 267.545 3146.08 266.69C3085.62 266.262 3088.19 203.522 3120.42 174.148" stroke="#C0C0C0" stroke-width="6" stroke-miterlimit="10" stroke-linecap="round" stroke-linejoin="round"/>
<path d="M3500.99 560.57L3426.13 361.798H3213.38L3196.7 560.57L3288.39 824.078L3500.99 560.57Z" fill="#5E5E5E"/>
<path d="M3329.17 518.505L3216.95 617.606L3196.7 560.57L3213.38 361.798H3401.89V365.505C3401.75 424.966 3375.08 481.147 3329.17 518.505Z" fill="#464646"/>
<path d="M3474.75 323.156V331.141C3474.75 352.815 3457.07 370.496 3435.4 370.496H3392.62C3384.64 431.097 3332.73 478.01 3269.99 478.01C3235.77 478.01 3204.83 464.178 3182.44 441.791C3160.05 419.405 3146.22 388.462 3146.22 354.241V270.967C3277.83 271.965 3315.62 163.739 3315.62 163.739C3306.92 245.016 3381.07 279.951 3392.34 284.656V283.8H3435.4C3457.07 283.8 3474.75 301.482 3474.75 323.156Z" fill="#5E5E5E"/>
<path d="M3291.52 247.297C3291.52 247.297 3322.18 247.868 3342.86 269.827" stroke="#444444" stroke-width="6" stroke-miterlimit="10" stroke-linecap="round"/>
<path d="M3285.11 346.113C3289.91 346.113 3293.8 339.282 3293.8 330.855C3293.8 322.429 3289.91 315.598 3285.11 315.598C3280.3 315.598 3276.41 322.429 3276.41 330.855C3276.41 339.282 3280.3 346.113 3285.11 346.113Z" fill="#464646"/>
<path d="M3166.33 346.113C3171.13 346.113 3175.03 339.282 3175.03 330.855C3175.03 322.429 3171.13 315.598 3166.33 315.598C3161.53 315.598 3157.63 322.429 3157.63 330.855C3157.63 339.282 3161.53 346.113 3166.33 346.113Z" fill="#464646"/>
<path d="M3218.94 404.29C3218.94 404.29 3242.33 415.555 3263.58 394.879" stroke="#444444" stroke-width="6" stroke-miterlimit="10" stroke-linecap="round"/>
<path d="M3403.6 338.698C3403.6 320.161 3418.72 305.047 3437.25 305.047" stroke="#444444" stroke-width="6" stroke-miterlimit="10" stroke-linecap="round"/>
<path d="M3159.77 248.724C3159.77 248.724 3129.11 249.294 3108.44 271.253" stroke="#444444" stroke-width="6" stroke-miterlimit="10" stroke-linecap="round"/>
<path d="M3161.62 386.181C3188.64 386.181 3210.53 360.453 3210.53 328.717C3210.53 296.98 3188.64 271.252 3161.62 271.252C3134.61 271.252 3112.71 296.98 3112.71 328.717C3112.71 360.453 3134.61 386.181 3161.62 386.181Z" stroke="#BBBDBF" stroke-width="6" stroke-miterlimit="10" stroke-linejoin="round"/>
<path d="M3292.95 386.181C3319.96 386.181 3341.86 360.453 3341.86 328.717C3341.86 296.98 3319.96 271.252 3292.95 271.252C3265.94 271.252 3244.04 296.98 3244.04 328.717C3244.04 360.453 3265.94 386.181 3292.95 386.181Z" stroke="#BBBDBF" stroke-width="6" stroke-miterlimit="10" stroke-linejoin="round"/>
<path d="M3244.18 328.717C3244.18 328.717 3226.65 316.169 3210.53 328.717" stroke="#BBBDBF" stroke-width="6" stroke-miterlimit="10" stroke-linejoin="round"/>
<path d="M1704.2 948.274H1981.68C2117.43 948.274 2248.19 1000.18 2346.86 1093.29L2509.98 1247.15L2267.58 1314.88L2220.95 1270.96C2203.98 1255.13 2176.32 1263.4 2170.9 1285.93L2150.65 1371.2H1610.09L1585.56 1228.18C1578.86 1204.94 1548.92 1198.52 1533.38 1217.06L1514.41 1239.73L1143.53 1232.89L1387.79 1052.37C1479.33 984.778 1590.27 948.274 1704.2 948.274Z" fill="#525252"/>
<path d="M1720.6 948.274L1866.33 1201.8L2003.64 948.987C2019.75 949.843 2035.73 951.411 2051.55 953.693C2045.28 991.622 2014.05 1218.34 2144.24 1371.2H1603.67C1603.67 1371.2 1712.47 1153.18 1668.84 948.987L1720.6 948.274Z" fill="#909090"/>
<path d="M1386.37 1659.52H2450.67L2243.48 1371.34H1610.09L1386.37 1659.52Z" stroke="#525252" stroke-width="3" stroke-miterlimit="10" stroke-linecap="round"/>
<path d="M2450.67 1659.52H1386.37L1610.09 1371.34H2243.48L2450.67 1659.52Z" fill="white" stroke="#909090" stroke-width="6" stroke-miterlimit="10" stroke-linejoin="round"/>
<path d="M1918.52 1659.52H1386.37C1702.63 1467.31 1918.52 1659.52 1918.52 1659.52Z" fill="#909090"/>
<path d="M1918.52 1659.52H2450.67C2134.4 1467.31 1918.52 1659.52 1918.52 1659.52Z" fill="#909090"/>
<path d="M1918.52 1659.52V1371.34" stroke="#909090" stroke-width="6" stroke-miterlimit="10" stroke-linecap="round"/>
<path d="M2162.49 1463.03L2315.35 1247.57C2338.73 1217.77 2374.52 1200.23 2412.45 1200.23C2480.61 1200.23 2535.93 1255.56 2535.93 1323.72V1327.99C2535.93 1371.91 2512.55 1412.55 2474.62 1434.65L2270.43 1551.58L2213.96 1648.68C2203.41 1666.79 2184.16 1677.91 2163.2 1677.91H1984.82C1984.82 1677.91 1984.25 1645.55 2019.9 1634.71C2055.54 1623.87 2061.53 1588.65 2061.53 1588.65C2061.53 1588.65 2043.85 1602.34 2008.63 1589.36L2076.51 1491.97C2089.05 1473.87 2109.73 1463.03 2131.83 1463.03H2162.49Z" fill="#848484"/>
<path d="M2218.38 1572.54L2173.47 1649.68C2165.05 1664.08 2149.8 1672.92 2133.11 1672.92" stroke="#525252" stroke-width="4" stroke-miterlimit="10" stroke-linecap="round"/>
<path d="M2170.33 1572.54L2125.41 1649.68C2117 1664.08 2101.74 1672.92 2085.06 1672.92" stroke="#525252" stroke-width="4" stroke-miterlimit="10" stroke-linecap="round"/>
<path d="M2122.28 1572.54L2077.36 1649.68C2068.95 1664.08 2053.69 1672.92 2037.01 1672.92" stroke="#525252" stroke-width="4" stroke-miterlimit="10" stroke-linecap="round"/>
<path d="M2162.49 1463.03H2194.86" stroke="#525252" stroke-width="4" stroke-miterlimit="10" stroke-linecap="round"/>
<path d="M1936.48 1331.7C1935.06 1332.56 1935.06 1334.7 1936.48 1335.55C1940.76 1337.98 1943.61 1342.68 1943.61 1348.1V1361.79C1943.61 1367.21 1940.76 1371.77 1936.48 1374.34C1935.06 1375.19 1935.06 1377.33 1936.48 1378.19C1940.76 1380.61 1943.61 1385.32 1943.61 1390.73V1404.42C1943.61 1409.84 1940.76 1414.4 1936.48 1416.97C1935.06 1417.83 1935.06 1419.97 1936.48 1420.82C1940.76 1423.25 1943.61 1427.95 1943.61 1433.37V1447.06C1943.61 1455.04 1937.34 1461.46 1929.49 1461.46H1252.61C1163.64 1461.46 1090.63 1386.03 1109.03 1297.05C1123 1229.46 1181.32 1183.41 1246.06 1183.41C1256.46 1183.41 1267.16 1184.69 1277.85 1187.11L1760.52 1291.49H1927.36C1936.34 1291.49 1943.61 1298.91 1943.61 1308.03V1319.44C1943.61 1324.43 1940.76 1329.14 1936.48 1331.7Z" fill="#848484"/>
<path d="M1934.34 1333.55H1858.48" stroke="#525252" stroke-width="4" stroke-miterlimit="10" stroke-linecap="round"/>
<path d="M1934.34 1376.05H1858.48" stroke="#525252" stroke-width="4" stroke-miterlimit="10" stroke-linecap="round"/>
<path d="M1934.34 1418.54H1858.48" stroke="#525252" stroke-width="4" stroke-miterlimit="10" stroke-linecap="round"/>
<path d="M1802.73 1291.78C1802.73 1291.78 1695.5 1134.5 1725.02 1131.65C1754.54 1128.8 1830.39 1291.06 1830.39 1291.06L1802.73 1291.78Z" fill="white"/>
<path d="M2067.81 936.725C2068.09 947.42 2063.82 957.116 2056.83 964.103C2049.98 970.947 2040.57 975.082 2030.31 975.082H1998.22C1992.66 1034.97 1942.47 1081.74 1881.16 1081.74H1846.79C1785.62 1081.74 1735.29 1034.97 1729.72 975.082H1697.5C1687.09 975.082 1677.68 970.947 1670.98 964.103C1663.99 957.116 1659.71 947.42 1660 936.725C1660.43 916.192 1677.82 899.937 1698.35 899.937H1729.3V878.691C1729.3 852.312 1750.69 831.065 1776.92 831.065H1951.03C1977.41 831.065 1998.65 852.454 1998.65 878.691V899.937H2029.45C2050.13 899.937 2067.38 916.192 2067.81 936.725Z" fill="#848484"/>
<path d="M2010.49 958.541C2010.49 942.285 2023.61 929.167 2039.86 929.167" stroke="#525252" stroke-width="5" stroke-miterlimit="10" stroke-linecap="round"/>
<path d="M1903.12 962.533C1903.12 962.533 1932.92 956.544 1950.74 973.94" stroke="#525252" stroke-width="5" stroke-miterlimit="10" stroke-linecap="round"/>
<path d="M1769.94 966.953C1769.94 966.953 1789.33 950.84 1816.13 962.676C1832.1 969.662 1840.23 996.612 1842.66 1027.84C1842.66 1027.84 1857.91 1044.09 1883.58 1027.84" stroke="#525252" stroke-width="5" stroke-miterlimit="10" stroke-linecap="round"/>
<path d="M1714.47 958.541C1714.47 942.285 1701.35 929.167 1685.09 929.167" stroke="#525252" stroke-width="5" stroke-miterlimit="10" stroke-linecap="round"/>
<path d="M1805.44 1012.73C1808.43 1012.73 1810.86 1008.07 1810.86 1002.32C1810.86 996.567 1808.43 991.907 1805.44 991.907C1802.45 991.907 1800.02 996.567 1800.02 1002.32C1800.02 1008.07 1802.45 1012.73 1805.44 1012.73Z" fill="#525252"/>
<path d="M1918.09 1012.73C1921.08 1012.73 1923.51 1008.07 1923.51 1002.32C1923.51 996.567 1921.08 991.907 1918.09 991.907C1915.09 991.907 1912.67 996.567 1912.67 1002.32C1912.67 1008.07 1915.09 1012.73 1918.09 1012.73Z" fill="#525252"/>
<path d="M2216.82 824.078C2186.59 878.833 2117.71 898.653 2063.1 868.424C2053.83 863.29 2045.56 857.016 2038.29 850.029C2031.87 879.831 2021.61 900.221 2021.61 900.221C2021.61 900.221 2007.21 906.068 1981.97 912.057C1985.11 901.79 1992.52 865.287 1957.59 831.493C1957.59 831.493 1981.83 879.546 1946.46 917.332C1945.75 918.045 1945.04 918.901 1944.47 919.614C1885.15 929.167 1797.31 932.732 1701.21 900.221C1701.21 900.221 1665.13 840.904 1682.95 778.591C1672.4 781.728 1661.14 783.439 1649.45 783.439C1584.42 783.439 1531.67 730.681 1531.67 665.659C1531.67 600.638 1584.42 547.879 1649.45 547.879C1714.47 547.879 1767.23 600.638 1767.23 665.659C1767.23 673.216 1766.51 680.631 1765.09 687.903C1850.64 643.415 1970.85 670.65 2016.33 719.273C2017.05 717.705 2017.9 716.279 2018.61 714.853C2048.84 660.098 2117.71 640.278 2172.33 670.507C2227.08 700.451 2247.04 769.323 2216.82 824.078Z" fill="#C0C0C0"/>
<path d="M1822.98 608.051C1814.42 601.349 1806.15 599.496 1798.17 602.775C1786.48 607.481 1776.49 623.308 1768.65 649.973C1767.51 653.538 1768.08 652.825 1767.23 656.247C1767.08 634.43 1761.24 623.736 1752.97 616.179C1746.98 610.76 1739.14 609.192 1729.72 611.616C1724.59 613.042 1720.88 616.179 1719.46 620.884C1716.32 630.295 1721.45 645.695 1735.29 667.797C1742.42 679.204 1749.83 689.328 1753.54 694.034L1677.82 778.447C1676.25 780.158 1676.4 782.868 1678.11 784.436C1678.96 785.149 1679.96 785.577 1680.96 785.577C1682.1 785.577 1683.24 785.149 1684.1 784.151L1762.09 697.171L1762.24 697.028L1767.37 691.182C1770.22 689.328 1783.91 680.915 1797.74 669.508C1818.99 652.112 1830.25 637.282 1830.96 625.162C1831.53 618.46 1828.68 612.614 1822.98 608.051ZM1727.59 623.593C1728.01 622.31 1728.87 620.742 1732.01 619.886C1734.14 619.316 1736.14 619.031 1737.99 619.031C1741.7 619.031 1744.7 620.171 1747.26 622.453C1758.67 632.862 1758.1 664.232 1756.1 683.482C1741.27 663.234 1724.02 634.573 1727.59 623.593ZM1822.55 624.734C1821.55 641.703 1789.61 666.371 1770.51 679.204C1774.78 656.389 1785.19 617.177 1801.45 610.618C1802.87 610.047 1804.44 609.762 1806.01 609.762C1809.72 609.762 1813.57 611.473 1817.7 614.753C1821.27 617.605 1822.84 620.742 1822.55 624.734Z" fill="#BBBDBF"/>
<path d="M2080.36 658.386C2073.23 651.541 2065.67 649.117 2057.68 651.113C2046.56 653.823 2035.44 665.372 2024.75 685.478C2022.61 689.47 2020.61 693.463 2019.04 697.17C2018.76 691.752 2018.33 685.62 2017.47 679.204C2014.19 653.11 2007.21 636.712 1996.8 630.58C1989.53 626.303 1980.83 626.873 1971.27 632.577C1964.72 636.427 1961.01 641.988 1960.58 648.832C1958.87 673.358 1999.36 708.007 2010.34 716.99L2037.29 851.596C2037.72 853.593 2039.43 855.019 2041.43 855.019C2041.71 855.019 2042 855.019 2042.28 854.876C2044.57 854.448 2046.13 852.167 2045.56 849.885L2019.33 718.702C2023.61 716.991 2036.15 711.572 2049.13 704.442C2071.37 692.18 2083.07 681.485 2084.92 671.789C2085.49 668.224 2085.2 663.234 2080.36 658.386ZM2009.77 705.441C1993.38 691.181 1967.85 665.23 1968.85 649.26C1969.14 645.267 1971.13 642.13 1975.41 639.706C1979.54 637.282 1983.11 636.141 1986.25 636.141C1988.39 636.141 1990.38 636.712 1992.24 637.71C2000.08 642.273 2005.92 657.387 2008.78 680.059C2009.92 689.328 2010.34 698.168 2010.49 704.728C2010.34 704.87 2010.06 705.155 2009.77 705.441ZM2076.51 670.078C2074.37 681.2 2045.99 697.313 2023.75 707.294C2031.02 689.898 2044.99 662.948 2059.68 659.384C2060.68 659.098 2061.68 658.956 2062.82 658.956C2066.67 658.956 2070.52 660.81 2074.51 664.517C2076.79 666.941 2076.79 668.795 2076.51 670.078Z" fill="#BBBDBF"/>
</g>
<defs>
<clipPath id="clip0_624_3990">
<rect width="5000" height="3500" fill="white"/>
</clipPath>
</defs>
</svg>
